<svg width="806" height="163" viewBox="0 0 806 163" fill="none" xmlns="http://www.w3.org/2000/svg">
<g filter="url(#filter0_ddddd_255_52)">
<path d="M65.077 7.72L63.6628 9.13421L63.6628 9.13421L65.077 7.72ZM71.029 13.672L72.4432 12.2578V12.2578L71.029 13.672ZM71.029 36.424L69.6148 35.0098V35.0098L71.029 36.424ZM69.685 37.768L68.2708 36.3538L66.9449 37.6797L68.1827 39.0882L69.685 37.768ZM72.469 40.936L74.0054 39.6556L73.9886 39.6355L73.9713 39.6158L72.469 40.936ZM72.085 64.936L73.4992 66.3502H73.4992L72.085 64.936ZM65.941 71.08L64.5268 69.6658L65.941 71.08ZM58.933 59.08L57.5188 57.6658L57.2893 57.8953L57.1442 58.1856L58.933 59.08ZM59.989 46.888L61.7779 45.9936L61.6434 45.7246L61.4357 45.507L59.989 46.888ZM57.973 44.776L59.4197 43.395L59.4037 43.3782L59.3872 43.3618L57.973 44.776ZM59.029 20.68L57.5491 22.0253L57.8004 22.3018L58.1346 22.4689L59.029 20.68ZM58.069 19.624L59.5489 18.2787L59.5169 18.2434L59.4832 18.2098L58.069 19.624ZM27.925 70.904C28.0915 70.904 28.3857 70.9682 28.6432 71.2258C28.9008 71.4833 28.965 71.7775 28.965 71.944H24.965C24.965 72.6865 25.2212 73.4607 25.8148 74.0542C26.4083 74.6478 27.1825 74.904 27.925 74.904V70.904ZM28.965 71.944V6.856H24.965V71.944H28.965ZM28.965 6.856C28.965 7.02249 28.9008 7.31665 28.6432 7.57421C28.3857 7.83177 28.0915 7.89599 27.925 7.89599V3.89599C27.1825 3.89599 26.4083 4.15222 25.8148 4.74578C25.2212 5.33934 24.965 6.11351 24.965 6.856H28.965ZM27.925 7.89599H60.757V3.89599H27.925V7.89599ZM60.757 7.89599C61.8295 7.89599 62.8648 8.33618 63.6628 9.13421L66.4912 6.30579C64.9852 4.79981 62.9486 3.89599 60.757 3.89599V7.89599ZM63.6628 9.13421L69.6148 15.0862L72.4432 12.2578L66.4912 6.30579L63.6628 9.13421ZM69.6148 15.0862C70.3788 15.8503 70.757 16.7759 70.757 17.896H74.757C74.757 15.7521 73.9832 13.7977 72.4432 12.2578L69.6148 15.0862ZM70.757 17.896V32.104H74.757V17.896H70.757ZM70.757 32.104C70.757 33.2582 70.3561 34.2685 69.6148 35.0098L72.4432 37.8382C74.006 36.2755 74.757 34.2138 74.757 32.104H70.757ZM69.6148 35.0098L68.2708 36.3538L71.0992 39.1822L72.4432 37.8382L69.6148 35.0098ZM68.1827 39.0882L70.9667 42.2562L73.9713 39.6158L71.1873 36.4478L68.1827 39.0882ZM70.9326 42.2164C71.63 43.0533 71.909 43.8585 71.909 44.68H75.909C75.909 42.8135 75.228 41.1227 74.0054 39.6556L70.9326 42.2164ZM71.909 44.68V60.616H75.909V44.68H71.909ZM71.909 60.616C71.909 61.6884 71.4688 62.7238 70.6708 63.5218L73.4992 66.3502C75.0052 64.8442 75.909 62.8075 75.909 60.616H71.909ZM70.6708 63.5218L64.5268 69.6658L67.3552 72.4942L73.4992 66.3502L70.6708 63.5218ZM64.5268 69.6658C63.7536 70.439 62.797 70.904 61.813 70.904V74.904C64.093 74.904 66.0164 73.833 67.3552 72.4942L64.5268 69.6658ZM61.813 70.904H27.925V74.904H61.813V70.904ZM38.405 58.984C38.405 59.5825 38.6132 60.2367 39.1228 60.7462C39.6323 61.2558 40.2865 61.464 40.885 61.464V57.464C41.1955 57.464 41.6097 57.5762 41.9512 57.9178C42.2928 58.2593 42.405 58.6735 42.405 58.984H38.405ZM40.885 61.464H58.261V57.464H40.885V61.464ZM58.261 61.464C58.8341 61.464 59.3298 61.2799 59.698 61.059C60.0467 60.8497 60.4592 60.4997 60.7219 59.9744L57.1442 58.1856C57.3108 57.8523 57.5313 57.6943 57.64 57.629C57.7682 57.5521 57.9759 57.464 58.261 57.464V61.464ZM60.3472 60.4942L61.4992 59.3422L58.6708 56.5138L57.5188 57.6658L60.3472 60.4942ZM61.4992 59.3422C61.821 59.0204 62.469 58.2461 62.469 57.16H58.469C58.469 56.8683 58.5615 56.6804 58.5932 56.6223C58.6291 56.5565 58.6583 56.5263 58.6708 56.5138L61.4992 59.3422ZM62.469 57.16V48.136H58.469V57.16H62.469ZM62.469 48.136C62.469 47.5064 62.2493 46.9711 62.1286 46.6997C62.0111 46.4353 61.8163 46.0704 61.7779 45.9936L58.2001 47.7824C58.231 47.8441 58.262 47.9042 58.2892 47.9568C58.3186 48.0135 58.3414 48.057 58.3664 48.1057C58.4152 48.2005 58.4487 48.2687 58.4734 48.3243C58.4987 48.3811 58.5021 48.3971 58.498 48.3824C58.4948 48.3714 58.469 48.2813 58.469 48.136H62.469ZM61.4357 45.507L59.4197 43.395L56.5263 46.157L58.5423 48.269L61.4357 45.507ZM59.3872 43.3618C58.6036 42.5782 57.6037 42.2 56.533 42.2V46.2C56.5657 46.2 56.5835 46.2027 56.5892 46.2037C56.5945 46.2047 56.5912 46.2045 56.5822 46.201C56.5781 46.1993 56.5736 46.1972 56.569 46.1948C56.5645 46.1924 56.5606 46.1901 56.5576 46.1881C56.5511 46.1838 56.5517 46.1831 56.5588 46.1902L59.3872 43.3618ZM56.533 42.2H40.885V46.2H56.533V42.2ZM40.885 42.2C40.2865 42.2 39.6323 42.4082 39.1228 42.9178C38.6132 43.4273 38.405 44.0815 38.405 44.68H42.405C42.405 44.9905 42.2928 45.4047 41.9512 45.7462C41.6097 46.0878 41.1955 46.2 40.885 46.2V42.2ZM38.405 44.68V58.984H42.405V44.68H38.405ZM38.405 30.28C38.405 30.8785 38.6132 31.5327 39.1228 32.0422C39.6323 32.5518 40.2865 32.76 40.885 32.76V28.76C41.1955 28.76 41.6097 28.8722 41.9512 29.2138C42.2928 29.5553 42.405 29.9695 42.405 30.28H38.405ZM40.885 32.76H57.301V28.76H40.885V32.76ZM57.301 32.76C58.3871 32.76 59.1614 32.112 59.4832 31.7902L56.6548 28.9618C56.6673 28.9493 56.6975 28.9201 56.7633 28.8842C56.8214 28.8525 57.0093 28.76 57.301 28.76V32.76ZM59.4832 31.7902L60.4432 30.8302L57.6148 28.0018L56.6548 28.9618L59.4832 31.7902ZM60.4432 30.8302C61.0952 30.1783 61.317 29.333 61.317 28.648H57.317C57.317 28.5748 57.3285 28.4861 57.3654 28.3845C57.4024 28.2828 57.4754 28.1412 57.6148 28.0018L60.4432 30.8302ZM61.317 28.648V21.352H57.317V28.648H61.317ZM61.317 21.352C61.317 21.0049 61.2618 20.6009 61.102 20.2012C60.9518 19.8259 60.6177 19.2383 59.9234 18.8911L58.1346 22.4689C57.6323 22.2177 57.4422 21.8221 57.388 21.6868C57.3242 21.5271 57.317 21.4111 57.317 21.352H61.317ZM60.5089 19.3347L59.5489 18.2787L56.5891 20.9693L57.5491 22.0253L60.5089 19.3347ZM59.4832 18.2098C58.8313 17.5578 57.986 17.336 57.301 17.336V21.336C57.2278 21.336 57.1391 21.3245 57.0375 21.2876C56.9359 21.2506 56.7942 21.1776 56.6548 21.0382L59.4832 18.2098ZM57.301 17.336H40.885V21.336H57.301V17.336ZM40.885 17.336C40.2865 17.336 39.6324 17.5442 39.1228 18.0538C38.6132 18.5633 38.405 19.2175 38.405 19.816H42.405C42.405 20.1265 42.2928 20.5407 41.9512 20.8822C41.6096 21.2238 41.1955 21.336 40.885 21.336V17.336ZM38.405 19.816V30.28H42.405V19.816H38.405ZM112.149 59.176L113.563 60.5902L113.597 60.5566L113.629 60.5213L112.149 59.176ZM113.109 58.12L111.695 56.7058L111.661 56.7394L111.629 56.7747L113.109 58.12ZM113.109 20.68L111.629 22.0253L111.881 22.3018L112.215 22.4689L113.109 20.68ZM112.149 19.624L113.629 18.2787L113.597 18.2434L113.563 18.2098L112.149 19.624ZM96.4053 19.624L97.8195 21.0382L98.049 20.8087L98.1941 20.5184L96.4053 19.624ZM95.3493 20.68L96.2437 22.4689L96.534 22.3237L96.7635 22.0942L95.3493 20.68ZM83.4453 13.672L82.031 12.2578V12.2578L83.4453 13.672ZM89.3972 7.72L90.8115 9.13421V9.13421L89.3972 7.72ZM119.157 7.72L117.743 9.13421L117.743 9.13421L119.157 7.72ZM125.109 13.672L126.523 12.2578V12.2578L125.109 13.672ZM125.109 65.128L126.523 66.5422V66.5422L125.109 65.128ZM119.157 71.08L117.743 69.6658L119.157 71.08ZM89.3972 71.08L90.8115 69.6658L89.3972 71.08ZM83.4453 65.128L82.031 66.5422L83.4453 65.128ZM94.991 60.5902C95.2163 60.8154 95.4973 61.0061 95.7748 61.1449C96.0558 61.2854 96.5144 61.464 97.0772 61.464V57.464C97.3521 57.464 97.5227 57.5466 97.5637 57.5671C97.5966 57.5836 97.6267 57.6017 97.6572 57.623C97.6801 57.6391 97.7403 57.6826 97.8195 57.7618L94.991 60.5902ZM97.0772 61.464H111.381V57.464H97.0772V61.464ZM111.381 61.464C112.066 61.464 112.912 61.2422 113.563 60.5902L110.735 57.7618C110.874 57.6224 111.016 57.5494 111.118 57.5124C111.219 57.4755 111.308 57.464 111.381 57.464V61.464ZM113.629 60.5213L114.589 59.4653L111.629 56.7747L110.669 57.8307L113.629 60.5213ZM114.523 59.5342C115.175 58.8823 115.397 58.037 115.397 57.352H111.397C111.397 57.2788 111.409 57.1901 111.446 57.0885C111.483 56.9869 111.556 56.8452 111.695 56.7058L114.523 59.5342ZM115.397 57.352V21.352H111.397V57.352H115.397ZM115.397 21.352C115.397 21.0049 115.342 20.6009 115.182 20.2012C115.032 19.8259 114.698 19.2383 114.004 18.8911L112.215 22.4689C111.713 22.2177 111.522 21.8221 111.468 21.6868C111.404 21.5271 111.397 21.4111 111.397 21.352H115.397ZM114.589 19.3347L113.629 18.2787L110.669 20.9693L111.629 22.0253L114.589 19.3347ZM113.563 18.2098C112.912 17.5578 112.066 17.336 111.381 17.336V21.336C111.308 21.336 111.219 21.3245 111.118 21.2876C111.016 21.2506 110.874 21.1776 110.735 21.0382L113.563 18.2098ZM111.381 17.336H97.0772V21.336H111.381V17.336ZM97.0772 17.336C96.7302 17.336 96.3261 17.3912 95.9265 17.551C95.5512 17.7012 94.9635 18.0353 94.6164 18.7296L98.1941 20.5184C97.943 21.0207 97.5473 21.2108 97.412 21.265C97.2524 21.3288 97.1363 21.336 97.0772 21.336V17.336ZM94.991 18.2098L93.935 19.2658L96.7635 22.0942L97.8195 21.0382L94.991 18.2098ZM94.4548 18.8911C93.7606 19.2383 93.4264 19.8259 93.2763 20.2012C93.1164 20.6009 93.0612 21.0049 93.0612 21.352H97.0612C97.0612 21.4111 97.0541 21.5271 96.9902 21.6868C96.9361 21.8221 96.7459 22.2177 96.2437 22.4689L94.4548 18.8911ZM93.0612 21.352V57.352H97.0612V21.352H93.0612ZM93.0612 57.352C93.0612 58.037 93.2831 58.8823 93.935 59.5342L96.7635 56.7058C96.9029 56.8452 96.9759 56.9868 97.0128 57.0885C97.0498 57.1901 97.0612 57.2788 97.0612 57.352H93.0612ZM93.935 59.5342L94.991 60.5902L97.8195 57.7618L96.7635 56.7058L93.935 59.5342ZM83.6213 60.904V17.896H79.6213V60.904H83.6213ZM83.6213 17.896C83.6213 16.8573 84.0356 15.91 84.8595 15.0862L82.031 12.2578C80.5509 13.738 79.6213 15.6707 79.6213 17.896H83.6213ZM84.8595 15.0862L90.8115 9.13421L87.983 6.30579L82.031 12.2578L84.8595 15.0862ZM90.8115 9.13421C91.6353 8.31038 92.5825 7.89599 93.6213 7.89599V3.89599C91.396 3.89599 89.4632 4.82561 87.983 6.30579L90.8115 9.13421ZM93.6213 7.89599H114.837V3.89599H93.6213V7.89599ZM114.837 7.89599C115.91 7.89599 116.945 8.33618 117.743 9.13421L120.571 6.30579C119.065 4.79981 117.029 3.89599 114.837 3.89599V7.89599ZM117.743 9.13421L123.695 15.0862L126.523 12.2578L120.571 6.30579L117.743 9.13421ZM123.695 15.0862C124.459 15.8503 124.837 16.7759 124.837 17.896H128.837C128.837 15.7521 128.063 13.7977 126.523 12.2578L123.695 15.0862ZM124.837 17.896V60.904H128.837V17.896H124.837ZM124.837 60.904C124.837 61.9453 124.447 62.9614 123.695 63.7138L126.523 66.5422C128.075 64.9906 128.837 62.9347 128.837 60.904H124.837ZM123.695 63.7138L117.743 69.6658L120.571 72.4942L126.523 66.5422L123.695 63.7138ZM117.743 69.6658C116.945 70.4638 115.91 70.904 114.837 70.904V74.904C117.029 74.904 119.065 74.0002 120.571 72.4942L117.743 69.6658ZM114.837 70.904H93.6213V74.904H114.837V70.904ZM93.6213 70.904C92.5825 70.904 91.6353 70.4896 90.8115 69.6658L87.983 72.4942C89.4632 73.9744 91.396 74.904 93.6213 74.904V70.904ZM90.8115 69.6658L84.8595 63.7138L82.031 66.5422L87.983 72.4942L90.8115 69.6658ZM84.8595 63.7138C84.0488 62.9031 83.6213 61.8637 83.6213 60.904H79.6213C79.6213 63.0163 80.5377 65.0489 82.031 66.5422L84.8595 63.7138ZM133.485 17.336C134.11 17.336 134.621 17.8474 134.621 18.472H130.621C130.621 20.0566 131.901 21.336 133.485 21.336V17.336ZM134.621 18.472V6.75999H130.621V18.472H134.621ZM134.621 6.75999C134.621 7.38456 134.11 7.89599 133.485 7.89599V3.89599C131.901 3.89599 130.621 5.17543 130.621 6.75999H134.621ZM133.485 7.89599H176.973V3.89599H133.485V7.89599ZM176.973 7.89599C176.793 7.89599 176.443 7.82026 176.152 7.50456C175.884 7.21512 175.837 6.9088 175.837 6.75999H179.837C179.837 6.13119 179.646 5.39287 179.091 4.79143C178.511 4.16373 177.73 3.89599 176.973 3.89599V7.89599ZM175.837 6.75999V18.472H179.837V6.75999H175.837ZM175.837 18.472C175.837 18.3232 175.884 18.0169 176.152 17.7274C176.443 17.4117 176.793 17.336 176.973 17.336V21.336C177.73 21.336 178.511 21.0683 179.091 20.4406C179.646 19.8391 179.837 19.1008 179.837 18.472H175.837ZM176.973 17.336H162.477V21.336H176.973V17.336ZM162.477 17.336C161.879 17.336 161.225 17.5442 160.715 18.0538C160.205 18.5633 159.997 19.2175 159.997 19.816H163.997C163.997 20.1265 163.885 20.5407 163.543 20.8822C163.202 21.2238 162.788 21.336 162.477 21.336V17.336ZM159.997 19.816V72.04H163.997V19.816H159.997ZM159.997 72.04C159.997 71.727 160.131 71.411 160.372 71.1864C160.612 70.9642 160.874 70.904 161.037 70.904V74.904C162.576 74.904 163.997 73.7616 163.997 72.04H159.997ZM161.037 70.904H149.421V74.904H161.037V70.904ZM149.421 70.904C149.602 70.904 149.951 70.9797 150.243 71.2954C150.51 71.5849 150.557 71.8912 150.557 72.04H146.557C146.557 72.6688 146.748 73.4071 147.304 74.0086C147.883 74.6363 148.665 74.904 149.421 74.904V70.904ZM150.557 72.04V19.816H146.557V72.04H150.557ZM150.557 19.816C150.557 19.2175 150.349 18.5633 149.839 18.0538C149.33 17.5442 148.676 17.336 148.077 17.336V21.336C147.767 21.336 147.353 21.2238 147.011 20.8822C146.669 20.5407 146.557 20.1265 146.557 19.816H150.557ZM148.077 17.336H133.485V21.336H148.077V17.336ZM174.353 71.656L176.276 72.2054L176.279 72.1957L176.281 72.1859L174.353 71.656ZM191.921 7.72L193.849 8.24991L193.855 8.22756L193.861 8.20507L191.921 7.72ZM207.089 7.72L205.116 8.0488L205.133 8.15187L205.161 8.2526L207.089 7.72ZM224.753 71.656L226.733 71.3732L226.715 71.2466L226.681 71.1234L224.753 71.656ZM210.929 72.328L212.869 71.8429L212.865 71.8255L212.86 71.8081L210.929 72.328ZM208.913 64.84L206.952 65.2322L206.964 65.2966L206.982 65.3599L208.913 64.84ZM190.193 64.84L192.118 65.3829L192.139 65.3083L192.154 65.2322L190.193 64.84ZM188.081 72.328L186.156 71.7851L186.148 71.8139L186.14 71.8429L188.081 72.328ZM194.129 50.056L196.026 50.6885L196.04 50.6466L196.052 50.6041L194.129 50.056ZM204.881 50.056L202.957 50.6041L202.969 50.6465L202.983 50.6884L204.881 50.056ZM199.793 32.2L197.852 32.6851L197.86 32.7167L197.869 32.7481L199.793 32.2ZM199.217 32.2L201.14 32.7481L201.149 32.7167L201.157 32.6851L199.217 32.2ZM175.313 70.904C175.559 70.904 175.861 71.0177 176.079 71.2927C176.307 71.5821 176.352 71.9387 176.276 72.2054L172.43 71.1066C171.846 73.1493 173.41 74.904 175.313 74.904V70.904ZM176.281 72.1859L193.849 8.24991L189.992 7.19009L172.424 71.1261L176.281 72.1859ZM193.861 8.20507C193.896 8.06376 193.952 8.00921 193.989 7.98148C194.035 7.94794 194.135 7.89599 194.321 7.89599V3.89599C192.333 3.89599 190.51 5.11506 189.98 7.23493L193.861 8.20507ZM194.321 7.89599H204.689V3.89599H194.321V7.89599ZM204.689 7.89599C204.887 7.89599 205.02 7.95561 205.078 7.99735C205.091 8.00685 205.099 8.01451 205.104 8.01932C205.108 8.02402 205.11 8.02665 205.11 8.0271C205.11 8.02742 205.111 8.02776 205.111 8.0292C205.112 8.03057 205.114 8.03648 205.116 8.0488L209.062 7.3912C208.666 5.02064 206.536 3.89599 204.689 3.89599V7.89599ZM205.161 8.2526L222.825 72.1886L226.681 71.1234L209.017 7.1874L205.161 8.2526ZM222.773 71.9388C222.742 71.7207 222.802 71.4589 222.983 71.2437C223.168 71.0245 223.438 70.904 223.697 70.904V74.904C225.645 74.904 226.992 73.191 226.733 71.3732L222.773 71.9388ZM223.697 70.904H211.793V74.904H223.697V70.904ZM211.793 70.904C211.916 70.904 212.098 70.9316 212.301 71.0567C212.528 71.1963 212.774 71.4611 212.869 71.8429L208.988 72.8131C209.392 74.4258 210.893 74.904 211.793 74.904V70.904ZM212.86 71.8081L210.844 64.3201L206.982 65.3599L208.998 72.8479L212.86 71.8081ZM210.874 64.4478C210.727 63.7154 210.322 63.0917 209.727 62.6796C209.169 62.2932 208.557 62.168 208.049 62.168V66.168C207.925 66.168 207.696 66.1388 207.45 65.9684C207.167 65.7723 207.002 65.4846 206.952 65.2322L210.874 64.4478ZM208.049 62.168H191.057V66.168H208.049V62.168ZM191.057 62.168C190.549 62.168 189.936 62.2932 189.378 62.6796C188.783 63.0917 188.378 63.7154 188.232 64.4478L192.154 65.2322C192.103 65.4846 191.938 65.7723 191.655 65.9684C191.409 66.1388 191.181 66.168 191.057 66.168V62.168ZM188.268 64.2971L186.156 71.7851L190.006 72.8709L192.118 65.3829L188.268 64.2971ZM186.14 71.8429C186.233 71.4733 186.463 71.2271 186.659 71.0959C186.833 70.9799 187.049 70.904 187.313 70.904V74.904C188.253 74.904 189.644 74.3212 190.021 72.8131L186.14 71.8429ZM187.313 70.904H175.313V74.904H187.313V70.904ZM192.231 49.4235C191.98 50.1773 192.116 50.9688 192.501 51.5737C192.92 52.232 193.675 52.728 194.609 52.728V48.728C195.159 48.728 195.625 49.032 195.876 49.4262C196.093 49.7672 196.181 50.2227 196.026 50.6885L192.231 49.4235ZM194.609 52.728H204.401V48.728H194.609V52.728ZM204.401 52.728C205.335 52.728 206.089 52.232 206.508 51.5738C206.893 50.9688 207.029 50.1773 206.778 49.4235L202.983 50.6884C202.828 50.2227 202.916 49.7672 203.133 49.4262C203.384 49.032 203.851 48.728 204.401 48.728V52.728ZM206.804 49.5079L201.716 31.6519L197.869 32.7481L202.957 50.6041L206.804 49.5079ZM201.733 31.7149C201.542 30.9526 200.836 29.912 199.505 29.912C198.174 29.912 197.467 30.9526 197.276 31.7149L201.157 32.6851C201.062 33.0634 200.596 33.912 199.505 33.912C198.414 33.912 197.947 33.0634 197.852 32.6851L201.733 31.7149ZM197.293 31.6519L192.205 49.5079L196.052 50.6041L201.14 32.7481L197.293 31.6519ZM263.654 71.464L265.443 70.5696L265.411 70.5049L265.374 70.4427L263.654 71.464ZM243.014 36.712L244.734 35.6907L244.707 35.6459L244.679 35.6026L243.014 36.712ZM241.286 7.336L243.006 6.31403L243.001 6.307L241.286 7.336ZM261.831 41.896L260.111 42.918L260.138 42.9624L260.166 43.0054L261.831 41.896ZM264.407 6.75999C264.407 7.07298 264.273 7.38901 264.031 7.61358C263.792 7.8358 263.53 7.89599 263.367 7.89599V3.89599C261.828 3.89599 260.407 5.03844 260.407 6.75999H264.407ZM263.367 7.89599H274.982V3.89599H263.367V7.89599ZM274.982 7.89599C274.802 7.89599 274.452 7.82026 274.161 7.50456C273.894 7.21512 273.846 6.9088 273.846 6.75999H277.846C277.846 6.13119 277.655 5.39287 277.1 4.79143C276.521 4.16373 275.739 3.89599 274.982 3.89599V7.89599ZM273.846 6.75999V71.944H277.846V6.75999H273.846ZM273.846 71.944C273.846 71.7775 273.911 71.4833 274.168 71.2258C274.426 70.9682 274.72 70.904 274.887 70.904V74.904C275.629 74.904 276.403 74.6478 276.997 74.0542C277.59 73.4607 277.846 72.6865 277.846 71.944H273.846ZM274.887 70.904H266.247V74.904H274.887V70.904ZM266.247 70.904C266.012 70.904 265.808 70.8491 265.666 70.7742C265.533 70.704 265.473 70.6298 265.443 70.5696L261.866 72.3584C262.776 74.1788 264.661 74.904 266.247 74.904V70.904ZM265.374 70.4427L244.734 35.6907L241.295 37.7333L261.935 72.4853L265.374 70.4427ZM244.679 35.6026C243.932 34.483 242.686 34.4572 241.974 34.6946C241.354 34.9014 240.342 35.5878 240.342 36.904H244.342C244.342 37.9322 243.571 38.3786 243.239 38.4894C242.815 38.6308 241.905 38.653 241.35 37.8214L244.679 35.6026ZM240.342 36.904V72.04H244.342V36.904H240.342ZM240.342 72.04C240.342 71.4154 240.854 70.904 241.479 70.904V74.904C243.063 74.904 244.342 73.6246 244.342 72.04H240.342ZM241.479 70.904H229.766V74.904H241.479V70.904ZM229.766 70.904C230.391 70.904 230.902 71.4154 230.902 72.04H226.902C226.902 73.6246 228.182 74.904 229.766 74.904V70.904ZM230.902 72.04V6.856H226.902V72.04H230.902ZM230.902 6.856C230.902 7.02249 230.838 7.31665 230.581 7.57421C230.323 7.83177 230.029 7.89599 229.863 7.89599V3.89599C229.12 3.89599 228.346 4.15222 227.752 4.74578C227.159 5.33934 226.902 6.11351 226.902 6.856H230.902ZM229.863 7.89599H238.695V3.89599H229.863V7.89599ZM238.695 7.89599C239.049 7.89599 239.404 8.08589 239.572 8.36499L243.001 6.307C242.017 4.66611 240.26 3.89599 238.695 3.89599V7.89599ZM239.567 8.35796L260.111 42.918L263.55 40.874L243.006 6.31404L239.567 8.35796ZM260.166 43.0054C260.453 43.436 260.893 43.7912 261.452 43.951C261.992 44.1054 262.514 44.0407 262.933 43.873C263.72 43.5583 264.407 42.7613 264.407 41.704H260.407C260.407 40.9347 260.901 40.3777 261.448 40.159C261.747 40.0393 262.137 39.9866 262.551 40.1049C262.984 40.2288 263.304 40.5 263.495 40.7866L260.166 43.0054ZM264.407 41.704V6.75999H260.407V41.704H264.407ZM285.559 6.75999C285.559 7.38456 285.047 7.89599 284.423 7.89599V3.89599C282.838 3.89599 281.559 5.17543 281.559 6.75999H285.559ZM284.423 7.89599H296.135V3.89599H284.423V7.89599ZM296.135 7.89599C295.51 7.89599 294.999 7.38456 294.999 6.75999H298.999C298.999 5.17543 297.719 3.89599 296.135 3.89599V7.89599ZM294.999 6.75999V72.04H298.999V6.75999H294.999ZM294.999 72.04C294.999 71.4154 295.51 70.904 296.135 70.904V74.904C297.719 74.904 298.999 73.6246 298.999 72.04H294.999ZM296.135 70.904H284.423V74.904H296.135V70.904ZM284.423 70.904C285.047 70.904 285.559 71.4154 285.559 72.04H281.559C281.559 73.6246 282.838 74.904 284.423 74.904V70.904ZM285.559 72.04V6.75999H281.559V72.04H285.559ZM336.141 20.68L334.661 22.0253L334.912 22.3018L335.246 22.4689L336.141 20.68ZM335.181 19.624L336.66 18.2787L336.628 18.2434L336.595 18.2098L335.181 19.624ZM319.436 19.624L320.851 21.0382L321.08 20.8087L321.225 20.5184L319.436 19.624ZM318.38 20.68L319.275 22.4689L319.565 22.3237L319.795 22.0942L318.38 20.68ZM335.181 59.176L336.595 60.5902L336.628 60.5566L336.66 60.5213L335.181 59.176ZM336.141 58.12L334.726 56.7058L334.693 56.7394L334.661 56.7747L336.141 58.12ZM348.141 65.128L349.555 66.5422V66.5422L348.141 65.128ZM342.189 71.08L340.774 69.6658L342.189 71.08ZM312.428 71.08L313.843 69.6658L312.428 71.08ZM306.477 65.128L305.062 66.5422L306.477 65.128ZM306.477 13.672L305.062 12.2578V12.2578L306.477 13.672ZM312.428 7.72L313.843 9.13421V9.13421L312.428 7.72ZM342.189 7.72L340.774 9.13421V9.13421L342.189 7.72ZM348.141 13.672L349.555 12.2578V12.2578L348.141 13.672ZM347.868 28.744C347.868 28.5952 347.916 28.2889 348.183 27.9994C348.474 27.6837 348.824 27.608 349.005 27.608V31.608C349.761 31.608 350.543 31.3403 351.122 30.7126C351.677 30.1111 351.868 29.3728 351.868 28.744H347.868ZM349.005 27.608H337.388V31.608H349.005V27.608ZM337.388 27.608C337.552 27.608 337.814 27.6682 338.053 27.8904C338.295 28.115 338.428 28.431 338.428 28.744H334.428C334.428 30.4656 335.85 31.608 337.388 31.608V27.608ZM338.428 28.744V21.352H334.428V28.744H338.428ZM338.428 21.352C338.428 21.0049 338.373 20.6009 338.213 20.2012C338.063 19.8259 337.729 19.2383 337.035 18.8911L335.246 22.4689C334.744 22.2177 334.554 21.8221 334.5 21.6868C334.436 21.5271 334.428 21.4111 334.428 21.352H338.428ZM337.62 19.3347L336.66 18.2787L333.701 20.9693L334.661 22.0253L337.62 19.3347ZM336.595 18.2098C335.943 17.5578 335.097 17.336 334.413 17.336V21.336C334.339 21.336 334.251 21.3245 334.149 21.2876C334.047 21.2506 333.906 21.1776 333.766 21.0382L336.595 18.2098ZM334.413 17.336H320.108V21.336H334.413V17.336ZM320.108 17.336C319.761 17.336 319.357 17.3912 318.958 17.551C318.582 17.7012 317.995 18.0353 317.648 18.7296L321.225 20.5184C320.974 21.0207 320.579 21.2108 320.443 21.265C320.284 21.3288 320.168 21.336 320.108 21.336V17.336ZM318.022 18.2098L316.966 19.2658L319.795 22.0942L320.851 21.0382L318.022 18.2098ZM317.486 18.8911C316.792 19.2383 316.458 19.8259 316.308 20.2012C316.148 20.6009 316.092 21.0049 316.092 21.352H320.092C320.092 21.4111 320.085 21.5271 320.021 21.6868C319.967 21.8221 319.777 22.2177 319.275 22.4689L317.486 18.8911ZM316.092 21.352V57.352H320.092V21.352H316.092ZM316.092 57.352C316.092 58.037 316.314 58.8823 316.966 59.5342L319.795 56.7058C319.934 56.8452 320.007 56.9868 320.044 57.0885C320.081 57.1901 320.092 57.2788 320.092 57.352H316.092ZM316.966 59.5342L318.022 60.5902L320.851 57.7618L319.795 56.7058L316.966 59.5342ZM318.022 60.5902C318.236 60.8043 318.53 61.0444 318.924 61.2196C319.327 61.3987 319.731 61.464 320.108 61.464V57.464C320.198 57.464 320.362 57.4813 320.549 57.5644C320.727 57.6436 320.829 57.7397 320.851 57.7618L318.022 60.5902ZM320.108 61.464H334.413V57.464H320.108V61.464ZM334.413 61.464C335.097 61.464 335.943 61.2422 336.595 60.5902L333.766 57.7618C333.906 57.6224 334.047 57.5494 334.149 57.5124C334.251 57.4755 334.339 57.464 334.413 57.464V61.464ZM336.66 60.5213L337.62 59.4653L334.661 56.7747L333.701 57.8307L336.66 60.5213ZM337.555 59.5342C338.207 58.8823 338.428 58.037 338.428 57.352H334.428C334.428 57.2788 334.44 57.1901 334.477 57.0885C334.514 56.9869 334.587 56.8452 334.726 56.7058L337.555 59.5342ZM338.428 57.352V50.056H334.428V57.352H338.428ZM338.428 50.056C338.428 50.2411 338.347 50.624 337.994 50.9265C337.688 51.1886 337.407 51.192 337.388 51.192V47.192C336.794 47.192 336.033 47.3394 335.391 47.8895C334.702 48.48 334.428 49.2949 334.428 50.056H338.428ZM337.388 51.192H349.005V47.192H337.388V51.192ZM349.005 51.192C348.984 51.192 348.602 51.1856 348.238 50.8222C347.875 50.4589 347.868 50.0763 347.868 50.056H351.868C351.868 49.4597 351.718 48.6451 351.067 47.9938C350.415 47.3424 349.601 47.192 349.005 47.192V51.192ZM347.868 50.056V60.904H351.868V50.056H347.868ZM347.868 60.904C347.868 61.9453 347.479 62.9614 346.726 63.7138L349.555 66.5422C351.106 64.9906 351.868 62.9347 351.868 60.904H347.868ZM346.726 63.7138L340.774 69.6658L343.603 72.4942L349.555 66.5422L346.726 63.7138ZM340.774 69.6658C339.976 70.4638 338.941 70.904 337.868 70.904V74.904C340.06 74.904 342.097 74.0002 343.603 72.4942L340.774 69.6658ZM337.868 70.904H316.652V74.904H337.868V70.904ZM316.652 70.904C315.614 70.904 314.667 70.4896 313.843 69.6658L311.014 72.4942C312.494 73.9744 314.427 74.904 316.652 74.904V70.904ZM313.843 69.6658L307.891 63.7138L305.062 66.5422L311.014 72.4942L313.843 69.6658ZM307.891 63.7138C307.08 62.9031 306.652 61.8637 306.652 60.904H302.652C302.652 63.0163 303.569 65.0489 305.062 66.5422L307.891 63.7138ZM306.652 60.904V17.896H302.652V60.904H306.652ZM306.652 17.896C306.652 16.8573 307.067 15.91 307.891 15.0862L305.062 12.2578C303.582 13.738 302.652 15.6707 302.652 17.896H306.652ZM307.891 15.0862L313.843 9.13421L311.014 6.30579L305.062 12.2578L307.891 15.0862ZM313.843 9.13421C314.667 8.31038 315.614 7.89599 316.652 7.89599V3.89599C314.427 3.89599 312.494 4.82561 311.014 6.30579L313.843 9.13421ZM316.652 7.89599H337.868V3.89599H316.652V7.89599ZM337.868 7.89599C338.941 7.89599 339.976 8.33618 340.774 9.13421L343.603 6.30579C342.097 4.79981 340.06 3.89599 337.868 3.89599V7.89599ZM340.774 9.13421L346.726 15.0862L349.555 12.2578L343.603 6.30579L340.774 9.13421ZM346.726 15.0862C347.49 15.8503 347.868 16.7759 347.868 17.896H351.868C351.868 15.7521 351.095 13.7977 349.555 12.2578L346.726 15.0862ZM347.868 17.896V28.744H351.868V17.896H347.868ZM354.072 71.656L355.995 72.2054L355.997 72.1957L356 72.1859L354.072 71.656ZM371.639 7.72L373.568 8.24991L373.574 8.22756L373.58 8.20507L371.639 7.72ZM386.807 7.72L384.835 8.0488L384.852 8.15187L384.88 8.2526L386.807 7.72ZM404.471 71.656L406.451 71.3732L406.433 71.2466L406.399 71.1234L404.471 71.656ZM390.647 72.328L392.588 71.8429L392.583 71.8255L392.579 71.8081L390.647 72.328ZM388.632 64.84L386.67 65.2322L386.683 65.2966L386.7 65.3599L388.632 64.84ZM369.911 64.84L371.836 65.3829L371.857 65.3083L371.873 65.2322L369.911 64.84ZM367.799 72.328L365.875 71.7851L365.866 71.8139L365.859 71.8429L367.799 72.328ZM373.848 50.056L375.745 50.6885L375.759 50.6466L375.771 50.6041L373.848 50.056ZM384.599 50.056L382.676 50.6041L382.688 50.6465L382.702 50.6884L384.599 50.056ZM379.512 32.2L377.571 32.6851L377.579 32.7167L377.588 32.7481L379.512 32.2ZM378.935 32.2L380.859 32.7481L380.868 32.7167L380.876 32.6851L378.935 32.2ZM355.031 70.904C355.278 70.904 355.58 71.0177 355.797 71.2927C356.026 71.5821 356.071 71.9387 355.995 72.2054L352.148 71.1066C351.565 73.1493 353.129 74.904 355.031 74.904V70.904ZM356 72.1859L373.568 8.24991L369.711 7.19009L352.143 71.1261L356 72.1859ZM373.58 8.20507C373.615 8.06376 373.671 8.00921 373.708 7.98148C373.753 7.94794 373.854 7.89599 374.039 7.89599V3.89599C372.052 3.89599 370.229 5.11506 369.699 7.23493L373.58 8.20507ZM374.039 7.89599H384.408V3.89599H374.039V7.89599ZM384.408 7.89599C384.606 7.89599 384.739 7.95561 384.797 7.99735C384.81 8.00685 384.818 8.01451 384.822 8.01932C384.827 8.02402 384.829 8.02665 384.829 8.0271C384.829 8.02742 384.829 8.02776 384.83 8.0292C384.83 8.03057 384.833 8.03648 384.835 8.0488L388.78 7.3912C388.385 5.02064 386.255 3.89599 384.408 3.89599V7.89599ZM384.88 8.2526L402.544 72.1886L406.399 71.1234L388.735 7.1874L384.88 8.2526ZM402.492 71.9388C402.46 71.7207 402.52 71.4589 402.702 71.2437C402.886 71.0245 403.156 70.904 403.415 70.904V74.904C405.363 74.904 406.711 73.191 406.451 71.3732L402.492 71.9388ZM403.415 70.904H391.512V74.904H403.415V70.904ZM391.512 70.904C391.634 70.904 391.816 70.9316 392.02 71.0567C392.247 71.1963 392.492 71.4611 392.588 71.8429L388.707 72.8131C389.11 74.4258 390.612 74.904 391.512 74.904V70.904ZM392.579 71.8081L390.563 64.3201L386.7 65.3599L388.716 72.8479L392.579 71.8081ZM390.593 64.4478C390.446 63.7154 390.041 63.0917 389.446 62.6796C388.888 62.2932 388.275 62.168 387.768 62.168V66.168C387.644 66.168 387.415 66.1388 387.169 65.9684C386.886 65.7723 386.721 65.4846 386.67 65.2322L390.593 64.4478ZM387.768 62.168H370.776V66.168H387.768V62.168ZM370.776 62.168C370.268 62.168 369.655 62.2932 369.097 62.6796C368.502 63.0917 368.097 63.7154 367.95 64.4478L371.873 65.2322C371.822 65.4846 371.657 65.7723 371.374 65.9684C371.128 66.1388 370.899 66.168 370.776 66.168V62.168ZM367.987 64.2971L365.875 71.7851L369.724 72.8709L371.836 65.3829L367.987 64.2971ZM365.859 71.8429C365.952 71.4733 366.181 71.2271 366.378 71.0959C366.552 70.9799 366.768 70.904 367.031 70.904V74.904C367.972 74.904 369.363 74.3212 369.74 72.8131L365.859 71.8429ZM367.031 70.904H355.031V74.904H367.031V70.904ZM371.95 49.4235C371.699 50.1773 371.835 50.9688 372.22 51.5737C372.639 52.232 373.394 52.728 374.328 52.728V48.728C374.877 48.728 375.344 49.032 375.595 49.4262C375.812 49.7672 375.9 50.2227 375.745 50.6885L371.95 49.4235ZM374.328 52.728H384.12V48.728H374.328V52.728ZM384.12 52.728C385.053 52.728 385.808 52.232 386.227 51.5738C386.612 50.9688 386.748 50.1773 386.497 49.4235L382.702 50.6884C382.547 50.2227 382.635 49.7672 382.852 49.4262C383.103 49.032 383.57 48.728 384.12 48.728V52.728ZM386.523 49.5079L381.435 31.6519L377.588 32.7481L382.676 50.6041L386.523 49.5079ZM381.452 31.7149C381.261 30.9526 380.554 29.912 379.224 29.912C377.893 29.912 377.186 30.9526 376.995 31.7149L380.876 32.6851C380.781 33.0634 380.314 33.912 379.224 33.912C378.133 33.912 377.666 33.0634 377.571 32.6851L381.452 31.7149ZM377.012 31.6519L371.924 49.5079L375.771 50.6041L380.859 32.7481L377.012 31.6519ZM445.485 72.808V70.808L445.48 70.808L445.485 72.808ZM409.581 72.904V74.904L409.587 74.904L409.581 72.904ZM410.621 6.75999C410.621 7.38456 410.11 7.89599 409.485 7.89599V3.89599C407.901 3.89599 406.621 5.17543 406.621 6.75999H410.621ZM409.485 7.89599H421.197V3.89599H409.485V7.89599ZM421.197 7.89599C420.573 7.89599 420.061 7.38456 420.061 6.75999H424.061C424.061 5.17543 422.782 3.89599 421.197 3.89599V7.89599ZM420.061 6.75999V58.984H424.061V6.75999H420.061ZM420.061 58.984C420.061 59.5825 420.269 60.2367 420.779 60.7462C421.289 61.2558 421.943 61.464 422.541 61.464V57.464C422.852 57.464 423.266 57.5762 423.607 57.9178C423.949 58.2593 424.061 58.6735 424.061 58.984H420.061ZM422.541 61.464H445.485V57.464H422.541V61.464ZM445.485 61.464C445.339 61.464 445.072 61.4201 444.805 61.1948C444.506 60.9413 444.349 60.5718 444.349 60.232H448.349C448.349 59.4122 448.001 58.6587 447.389 58.1412C446.811 57.6519 446.112 57.464 445.485 57.464V61.464ZM444.349 60.232V71.944H448.349V60.232H444.349ZM444.349 71.944C444.349 71.6358 444.44 71.422 444.49 71.3251C444.545 71.219 444.603 71.1502 444.647 71.1058C444.691 71.0614 444.76 71.0037 444.866 70.9491C444.963 70.8991 445.177 70.808 445.485 70.808V74.808C446.423 74.808 447.119 74.2911 447.475 73.9342C447.832 73.5773 448.349 72.8817 448.349 71.944H444.349ZM445.48 70.808L409.576 70.904L409.587 74.904L445.491 74.808L445.48 70.808ZM409.581 70.904C409.748 70.904 410.042 70.9682 410.299 71.2258C410.557 71.4833 410.621 71.7775 410.621 71.944H406.621C406.621 72.6865 406.877 73.4607 407.471 74.0542C408.065 74.6478 408.839 74.904 409.581 74.904V70.904ZM410.621 71.944V6.75999H406.621V71.944H410.621ZM516.703 65.128L518.117 66.5422V66.5422L516.703 65.128ZM510.751 71.08L509.337 69.6658L510.751 71.08ZM480.991 71.08L482.405 69.6658L480.991 71.08ZM475.039 65.128L473.625 66.5422L475.039 65.128ZM475.039 13.672L473.625 12.2578V12.2578L475.039 13.672ZM480.991 7.72L482.405 9.13421V9.13421L480.991 7.72ZM510.751 7.72L509.337 9.13421V9.13421L510.751 7.72ZM516.703 13.672L518.117 12.2578V12.2578L516.703 13.672ZM504.703 20.68L503.223 22.0253L503.474 22.3018L503.809 22.4689L504.703 20.68ZM503.743 19.624L505.223 18.2787L505.191 18.2434L505.157 18.2098L503.743 19.624ZM487.999 19.624L489.413 21.0382L489.643 20.8087L489.788 20.5184L487.999 19.624ZM486.943 20.68L487.837 22.4689L488.128 22.3237L488.357 22.0942L486.943 20.68ZM503.743 59.176L505.157 60.5902L505.191 60.5566L505.223 60.5213L503.743 59.176ZM504.703 58.12L503.289 56.7058L503.255 56.7394L503.223 56.7747L504.703 58.12ZM494.815 45.752C494.982 45.752 495.276 45.8162 495.533 46.0738C495.791 46.3313 495.855 46.6255 495.855 46.792H491.855C491.855 47.5345 492.111 48.3087 492.705 48.9022C493.298 49.4958 494.073 49.752 494.815 49.752V45.752ZM495.855 46.792V35.176H491.855V46.792H495.855ZM495.855 35.176C495.855 35.3611 495.774 35.744 495.421 36.0465C495.115 36.3086 494.834 36.312 494.815 36.312V32.312C494.22 32.312 493.459 32.4593 492.817 33.0095C492.128 33.6 491.855 34.4149 491.855 35.176H495.855ZM494.815 36.312H517.471V32.312H494.815V36.312ZM517.471 36.312C517.305 36.312 517.01 36.2478 516.753 35.9902C516.495 35.7327 516.431 35.4385 516.431 35.272H520.431C520.431 34.5295 520.175 33.7553 519.581 33.1618C518.988 32.5682 518.214 32.312 517.471 32.312V36.312ZM516.431 35.272V60.904H520.431V35.272H516.431ZM516.431 60.904C516.431 61.9453 516.041 62.9614 515.289 63.7138L518.117 66.5422C519.669 64.9906 520.431 62.9347 520.431 60.904H516.431ZM515.289 63.7138L509.337 69.6658L512.165 72.4942L518.117 66.5422L515.289 63.7138ZM509.337 69.6658C508.539 70.4638 507.503 70.904 506.431 70.904V74.904C508.623 74.904 510.659 74.0002 512.165 72.4942L509.337 69.6658ZM506.431 70.904H485.215V74.904H506.431V70.904ZM485.215 70.904C484.176 70.904 483.229 70.4896 482.405 69.6658L479.577 72.4942C481.057 73.9744 482.99 74.904 485.215 74.904V70.904ZM482.405 69.6658L476.453 63.7138L473.625 66.5422L479.577 72.4942L482.405 69.6658ZM476.453 63.7138C475.643 62.9031 475.215 61.8637 475.215 60.904H471.215C471.215 63.0163 472.131 65.0489 473.625 66.5422L476.453 63.7138ZM475.215 60.904V17.896H471.215V60.904H475.215ZM475.215 17.896C475.215 16.8573 475.629 15.91 476.453 15.0862L473.625 12.2578C472.145 13.738 471.215 15.6707 471.215 17.896H475.215ZM476.453 15.0862L482.405 9.13421L479.577 6.30579L473.625 12.2578L476.453 15.0862ZM482.405 9.13421C483.229 8.31038 484.176 7.89599 485.215 7.89599V3.89599C482.99 3.89599 481.057 4.82561 479.577 6.30579L482.405 9.13421ZM485.215 7.89599H506.431V3.89599H485.215V7.89599ZM506.431 7.89599C507.503 7.89599 508.539 8.33618 509.337 9.13421L512.165 6.30579C510.659 4.79981 508.623 3.89599 506.431 3.89599V7.89599ZM509.337 9.13421L515.289 15.0862L518.117 12.2578L512.165 6.30579L509.337 9.13421ZM515.289 15.0862C516.053 15.8503 516.431 16.7759 516.431 17.896H520.431C520.431 15.7521 519.657 13.7977 518.117 12.2578L515.289 15.0862ZM516.431 17.896V27.112H520.431V17.896H516.431ZM516.431 27.112C516.431 26.9632 516.478 26.6569 516.745 26.3674C517.037 26.0517 517.386 25.976 517.567 25.976V29.976C518.324 29.976 519.105 29.7083 519.685 29.0806C520.24 28.4791 520.431 27.7408 520.431 27.112H516.431ZM517.567 25.976H505.951V29.976H517.567V25.976ZM505.951 25.976C506.114 25.976 506.377 26.0362 506.616 26.2584C506.858 26.483 506.991 26.799 506.991 27.112H502.991C502.991 28.8336 504.413 29.976 505.951 29.976V25.976ZM506.991 27.112V21.352H502.991V27.112H506.991ZM506.991 21.352C506.991 21.0049 506.936 20.6009 506.776 20.2012C506.626 19.8259 506.292 19.2383 505.597 18.8911L503.809 22.4689C503.306 22.2177 503.116 21.8221 503.062 21.6868C502.998 21.5271 502.991 21.4111 502.991 21.352H506.991ZM506.183 19.3347L505.223 18.2787L502.263 20.9693L503.223 22.0253L506.183 19.3347ZM505.157 18.2098C504.505 17.5578 503.66 17.336 502.975 17.336V21.336C502.902 21.336 502.813 21.3245 502.712 21.2876C502.61 21.2506 502.468 21.1776 502.329 21.0382L505.157 18.2098ZM502.975 17.336H488.671V21.336H502.975V17.336ZM488.671 17.336C488.324 17.336 487.92 17.3912 487.52 17.551C487.145 17.7012 486.557 18.0353 486.21 18.7296L489.788 20.5184C489.537 21.0207 489.141 21.2108 489.006 21.265C488.846 21.3288 488.73 21.336 488.671 21.336V17.336ZM486.585 18.2098L485.529 19.2658L488.357 22.0942L489.413 21.0382L486.585 18.2098ZM486.049 18.8911C485.354 19.2383 485.02 19.8259 484.87 20.2012C484.71 20.6009 484.655 21.0049 484.655 21.352H488.655C488.655 21.4111 488.648 21.5271 488.584 21.6868C488.53 21.8221 488.34 22.2177 487.837 22.4689L486.049 18.8911ZM484.655 21.352V57.352H488.655V21.352H484.655ZM484.655 57.352C484.655 58.037 484.877 58.8823 485.529 59.5342L488.357 56.7058C488.497 56.8452 488.57 56.9868 488.607 57.0885C488.644 57.1901 488.655 57.2788 488.655 57.352H484.655ZM485.529 59.5342L486.585 60.5902L489.413 57.7618L488.357 56.7058L485.529 59.5342ZM486.585 60.5902C486.799 60.8043 487.092 61.0444 487.487 61.2196C487.89 61.3987 488.294 61.464 488.671 61.464V57.464C488.76 57.464 488.924 57.4813 489.111 57.5644C489.29 57.6436 489.391 57.7397 489.413 57.7618L486.585 60.5902ZM488.671 61.464H502.975V57.464H488.671V61.464ZM502.975 61.464C503.66 61.464 504.505 61.2422 505.157 60.5902L502.329 57.7618C502.468 57.6224 502.61 57.5494 502.712 57.5124C502.813 57.4755 502.902 57.464 502.975 57.464V61.464ZM505.223 60.5213L506.183 59.4653L503.223 56.7747L502.263 57.8307L505.223 60.5213ZM506.117 59.5342C506.769 58.8823 506.991 58.037 506.991 57.352H502.991C502.991 57.2788 503.002 57.1901 503.039 57.0885C503.076 56.9869 503.149 56.8452 503.289 56.7058L506.117 59.5342ZM506.991 57.352V48.616H502.991V57.352H506.991ZM506.991 48.616C506.991 48.0197 506.841 47.2051 506.189 46.5538C505.538 45.9024 504.723 45.752 504.127 45.752V49.752C504.107 49.752 503.724 49.7456 503.361 49.3822C502.997 49.0189 502.991 48.6363 502.991 48.616H506.991ZM504.127 45.752H494.815V49.752H504.127V45.752ZM522.634 71.656L524.557 72.2054L524.56 72.1957L524.563 72.1859L522.634 71.656ZM540.202 7.72L542.13 8.24991L542.137 8.22756L542.142 8.20507L540.202 7.72ZM555.37 7.72L553.397 8.0488L553.414 8.15187L553.442 8.2526L555.37 7.72ZM573.034 71.656L575.014 71.3732L574.996 71.2466L574.962 71.1234L573.034 71.656ZM559.21 72.328L561.15 71.8429L561.146 71.8255L561.141 71.8081L559.21 72.328ZM557.194 64.84L555.233 65.2322L555.246 65.2966L555.263 65.3599L557.194 64.84ZM538.474 64.84L540.399 65.3829L540.42 65.3083L540.435 65.2322L538.474 64.84ZM536.362 72.328L534.437 71.7851L534.429 71.8139L534.422 71.8429L536.362 72.328ZM542.41 50.056L544.307 50.6885L544.321 50.6466L544.333 50.6041L542.41 50.056ZM553.162 50.056L551.239 50.6041L551.251 50.6465L551.265 50.6884L553.162 50.056ZM548.074 32.2L546.134 32.6851L546.142 32.7167L546.151 32.7481L548.074 32.2ZM547.498 32.2L549.421 32.7481L549.43 32.7167L549.438 32.6851L547.498 32.2ZM523.594 70.904C523.841 70.904 524.143 71.0177 524.36 71.2927C524.588 71.5821 524.633 71.9387 524.557 72.2054L520.711 71.1066C520.127 73.1493 521.692 74.904 523.594 74.904V70.904ZM524.563 72.1859L542.13 8.24991L538.273 7.19009L520.705 71.1261L524.563 72.1859ZM542.142 8.20507C542.178 8.06376 542.233 8.00921 542.271 7.98148C542.316 7.94794 542.417 7.89599 542.602 7.89599V3.89599C540.615 3.89599 538.792 5.11506 538.262 7.23493L542.142 8.20507ZM542.602 7.89599H552.97V3.89599H542.602V7.89599ZM552.97 7.89599C553.169 7.89599 553.301 7.95561 553.359 7.99735C553.372 8.00685 553.38 8.01451 553.385 8.01932C553.389 8.02402 553.391 8.02665 553.391 8.0271C553.392 8.02742 553.392 8.02776 553.392 8.0292C553.393 8.03057 553.395 8.03648 553.397 8.0488L557.343 7.3912C556.948 5.02064 554.817 3.89599 552.97 3.89599V7.89599ZM553.442 8.2526L571.106 72.1886L574.962 71.1234L557.298 7.1874L553.442 8.2526ZM571.054 71.9388C571.023 71.7207 571.083 71.4589 571.264 71.2437C571.449 71.0245 571.719 70.904 571.978 70.904V74.904C573.926 74.904 575.274 73.191 575.014 71.3732L571.054 71.9388ZM571.978 70.904H560.074V74.904H571.978V70.904ZM560.074 70.904C560.197 70.904 560.379 70.9316 560.582 71.0567C560.809 71.1963 561.055 71.4611 561.15 71.8429L557.27 72.8131C557.673 74.4258 559.175 74.904 560.074 74.904V70.904ZM561.141 71.8081L559.125 64.3201L555.263 65.3599L557.279 72.8479L561.141 71.8081ZM559.155 64.4478C559.009 63.7154 558.604 63.0917 558.008 62.6796C557.45 62.2932 556.838 62.168 556.33 62.168V66.168C556.206 66.168 555.978 66.1388 555.732 65.9684C555.448 65.7723 555.283 65.4846 555.233 65.2322L559.155 64.4478ZM556.33 62.168H539.338V66.168H556.33V62.168ZM539.338 62.168C538.83 62.168 538.218 62.2932 537.66 62.6796C537.064 63.0917 536.659 63.7154 536.513 64.4478L540.435 65.2322C540.385 65.4846 540.22 65.7723 539.936 65.9684C539.69 66.1388 539.462 66.168 539.338 66.168V62.168ZM536.549 64.2971L534.437 71.7851L538.287 72.8709L540.399 65.3829L536.549 64.2971ZM534.422 71.8429C534.514 71.4733 534.744 71.2271 534.941 71.0959C535.115 70.9799 535.331 70.904 535.594 70.904V74.904C536.534 74.904 537.925 74.3212 538.302 72.8131L534.422 71.8429ZM535.594 70.904H523.594V74.904H535.594V70.904ZM540.513 49.4235C540.261 50.1773 540.398 50.9688 540.783 51.5737C541.202 52.232 541.956 52.728 542.89 52.728V48.728C543.44 48.728 543.906 49.032 544.157 49.4262C544.374 49.7672 544.463 50.2227 544.307 50.6885L540.513 49.4235ZM542.89 52.728H552.682V48.728H542.89V52.728ZM552.682 52.728C553.616 52.728 554.37 52.232 554.789 51.5738C555.174 50.9688 555.311 50.1773 555.059 49.4235L551.265 50.6884C551.109 50.2227 551.198 49.7672 551.415 49.4262C551.666 49.032 552.132 48.728 552.682 48.728V52.728ZM555.085 49.5079L549.997 31.6519L546.151 32.7481L551.239 50.6041L555.085 49.5079ZM550.014 31.7149C549.824 30.9526 549.117 29.912 547.786 29.912C546.455 29.912 545.748 30.9526 545.558 31.7149L549.438 32.6851C549.344 33.0634 548.877 33.912 547.786 33.912C546.695 33.912 546.228 33.0634 546.134 32.6851L550.014 31.7149ZM545.575 31.6519L540.487 49.5079L544.333 50.6041L549.421 32.7481L545.575 31.6519ZM622.496 72.04H624.496L624.496 72.0281L622.496 72.04ZM609.056 72.04H611.056V72.0328V72.0255L609.056 72.04ZM608.96 58.792H606.96V58.7992V58.8065L608.96 58.792ZM608.48 56.392L610.352 55.6898L610.306 55.5656L610.243 55.4487L608.48 56.392ZM606.272 52.264L608.035 51.3207L608.012 51.2773L607.987 51.235L606.272 52.264ZM614.72 7.72L613.306 9.13421V9.13421L614.72 7.72ZM620.672 13.672L622.086 12.2578L622.086 12.2578L620.672 13.672ZM620.672 43.72L622.086 45.1342H622.086L620.672 43.72ZM618.176 46.216L616.762 44.8018L615.731 45.8324L616.396 47.1291L618.176 46.216ZM621.92 53.512L623.709 52.6176L623.704 52.6082L623.699 52.5989L621.92 53.512ZM622.4 55.912H620.4L620.4 55.9239L622.4 55.912ZM607.712 37.768L608.606 39.5569L608.94 39.3898L609.192 39.1133L607.712 37.768ZM608.672 36.712L607.258 35.2978L607.224 35.3314L607.192 35.3667L608.672 36.712ZM608.672 20.68L607.192 22.0253L607.443 22.3018L607.777 22.4689L608.672 20.68ZM607.712 19.624L609.192 18.2787L609.16 18.2434L609.126 18.2098L607.712 19.624ZM620.496 72.04C620.496 71.8912 620.543 71.5849 620.81 71.2954C621.102 70.9797 621.451 70.904 621.632 70.904V74.904C622.388 74.904 623.17 74.6363 623.749 74.0086C624.305 73.4071 624.496 72.6688 624.496 72.04H620.496ZM621.632 70.904H610.016V74.904H621.632V70.904ZM610.016 70.904C610.417 70.904 610.642 71.0805 610.72 71.1539C610.775 71.2049 610.843 71.2826 610.905 71.4C610.963 71.5096 611.056 71.7294 611.056 72.04H607.056C607.056 72.9918 607.586 73.6995 607.991 74.0781C608.43 74.4875 609.135 74.904 610.016 74.904V70.904ZM611.056 72.0255L610.96 58.7775L606.96 58.8065L607.056 72.0545L611.056 72.0255ZM610.96 58.792C610.96 57.7242 610.701 56.6184 610.352 55.6898L606.607 57.0942C606.835 57.7016 606.96 58.3238 606.96 58.792H610.96ZM610.243 55.4487L608.035 51.3207L604.508 53.2073L606.716 57.3353L610.243 55.4487ZM607.987 51.235C607.401 50.2589 606.226 49.4 604.832 49.4V53.4C604.754 53.4 604.697 53.3872 604.664 53.3768C604.631 53.3666 604.613 53.3564 604.607 53.3525C604.601 53.3486 604.597 53.3453 604.592 53.3407C604.588 53.3365 604.574 53.3225 604.557 53.293L607.987 51.235ZM604.832 49.4H591.104V53.4H604.832V49.4ZM591.104 49.4C590.505 49.4 589.851 49.6082 589.342 50.1178C588.832 50.6273 588.624 51.2815 588.624 51.88H592.624C592.624 52.1905 592.512 52.6047 592.17 52.9462C591.828 53.2878 591.414 53.4 591.104 53.4V49.4ZM588.624 51.88V72.04H592.624V51.88H588.624ZM588.624 72.04C588.624 71.4154 589.135 70.904 589.76 70.904V74.904C591.344 74.904 592.624 73.6246 592.624 72.04H588.624ZM589.76 70.904H578.048V74.904H589.76V70.904ZM578.048 70.904C578.672 70.904 579.184 71.4154 579.184 72.04H575.184C575.184 73.6246 576.463 74.904 578.048 74.904V70.904ZM579.184 72.04V6.856H575.184V72.04H579.184ZM579.184 6.856C579.184 7.02249 579.12 7.31665 578.862 7.57421C578.604 7.83177 578.31 7.89599 578.144 7.89599V3.89599C577.401 3.89599 576.627 4.15222 576.034 4.74578C575.44 5.33934 575.184 6.11351 575.184 6.856H579.184ZM578.144 7.89599H610.4V3.89599H578.144V7.89599ZM610.4 7.89599C611.472 7.89599 612.508 8.33618 613.306 9.13421L616.134 6.30579C614.628 4.79981 612.591 3.89599 610.4 3.89599V7.89599ZM613.306 9.13421L619.258 15.0862L622.086 12.2578L616.134 6.30579L613.306 9.13421ZM619.258 15.0862C620.022 15.8503 620.4 16.7759 620.4 17.896H624.4C624.4 15.7521 623.626 13.7977 622.086 12.2578L619.258 15.0862ZM620.4 17.896V39.496H624.4V17.896H620.4ZM620.4 39.496C620.4 40.5373 620.01 41.5534 619.258 42.3058L622.086 45.1342C623.638 43.5826 624.4 41.5267 624.4 39.496H620.4ZM619.258 42.3058L616.762 44.8018L619.59 47.6302L622.086 45.1342L619.258 42.3058ZM616.396 47.1291L620.14 54.4251L623.699 52.5989L619.955 45.3029L616.396 47.1291ZM620.131 54.4064C620.319 54.7834 620.4 55.2005 620.4 55.912H624.4C624.4 54.8955 624.288 53.7766 623.709 52.6176L620.131 54.4064ZM620.4 55.9239L620.496 72.0519L624.496 72.0281L624.4 55.9001L620.4 55.9239ZM588.624 37.48C588.624 38.0785 588.832 38.7327 589.342 39.2422C589.851 39.7518 590.505 39.96 591.104 39.96V35.96C591.414 35.96 591.828 36.0722 592.17 36.4138C592.512 36.7553 592.624 37.1695 592.624 37.48H588.624ZM591.104 39.96H606.944V35.96H591.104V39.96ZM606.944 39.96C607.63 39.96 608.227 39.7464 608.606 39.5569L606.817 35.9791C606.828 35.9739 606.833 35.972 606.833 35.9718C606.834 35.9715 606.835 35.9712 606.838 35.9705C606.84 35.9698 606.849 35.9676 606.864 35.9653C606.879 35.9631 606.906 35.96 606.944 35.96V39.96ZM609.192 39.1133L610.152 38.0573L607.192 35.3667L606.232 36.4227L609.192 39.1133ZM610.086 38.1262C610.738 37.4743 610.96 36.629 610.96 35.944H606.96C606.96 35.8708 606.971 35.7821 607.008 35.6805C607.045 35.5788 607.118 35.4372 607.258 35.2978L610.086 38.1262ZM610.96 35.944V21.352H606.96V35.944H610.96ZM610.96 21.352C610.96 21.0049 610.905 20.6009 610.745 20.2012C610.595 19.8259 610.26 19.2383 609.566 18.8911L607.777 22.4689C607.275 22.2177 607.085 21.8221 607.031 21.6868C606.967 21.5271 606.96 21.4111 606.96 21.352H610.96ZM610.152 19.3347L609.192 18.2787L606.232 20.9693L607.192 22.0253L610.152 19.3347ZM609.126 18.2098C608.474 17.5578 607.629 17.336 606.944 17.336V21.336C606.871 21.336 606.782 21.3245 606.68 21.2876C606.579 21.2506 606.437 21.1776 606.298 21.0382L609.126 18.2098ZM606.944 17.336H591.104V21.336H606.944V17.336ZM591.104 17.336C590.505 17.336 589.851 17.5442 589.342 18.0538C588.832 18.5633 588.624 19.2175 588.624 19.816H592.624C592.624 20.1265 592.512 20.5407 592.17 20.8822C591.828 21.2238 591.414 21.336 591.104 21.336V17.336ZM588.624 19.816V37.48H592.624V19.816H588.624ZM667.688 7.72L666.274 9.13421V9.13421L667.688 7.72ZM673.641 13.672L675.055 12.2578L675.055 12.2578L673.641 13.672ZM673.641 65.128L675.055 66.5422L675.055 66.5422L673.641 65.128ZM667.688 71.08L666.274 69.6658L667.688 71.08ZM660.68 59.176L662.095 60.5902L662.128 60.5566L662.16 60.5213L660.68 59.176ZM661.641 58.12L660.226 56.7058L660.193 56.7394L660.161 56.7747L661.641 58.12ZM661.641 20.68L660.161 22.0253L660.412 22.3018L660.746 22.4689L661.641 20.68ZM660.68 19.624L662.16 18.2787L662.128 18.2434L662.095 18.2098L660.68 19.624ZM631.112 70.904C631.279 70.904 631.573 70.9682 631.831 71.2258C632.088 71.4833 632.153 71.7775 632.153 71.944H628.153C628.153 72.6865 628.409 73.4607 629.002 74.0542C629.596 74.6478 630.37 74.904 631.112 74.904V70.904ZM632.153 71.944V6.856H628.153V71.944H632.153ZM632.153 6.856C632.153 7.02249 632.088 7.31665 631.831 7.57421C631.573 7.83177 631.279 7.89599 631.112 7.89599V3.89599C630.37 3.89599 629.596 4.15222 629.002 4.74578C628.409 5.33934 628.153 6.11351 628.153 6.856H632.153ZM631.112 7.89599H663.369V3.89599H631.112V7.89599ZM663.369 7.89599C664.441 7.89599 665.476 8.33618 666.274 9.13421L669.103 6.30579C667.597 4.79981 665.56 3.89599 663.369 3.89599V7.89599ZM666.274 9.13421L672.226 15.0862L675.055 12.2578L669.103 6.30579L666.274 9.13421ZM672.226 15.0862C672.99 15.8503 673.369 16.7759 673.369 17.896H677.369C677.369 15.7521 676.595 13.7977 675.055 12.2578L672.226 15.0862ZM673.369 17.896V60.904H677.369V17.896H673.369ZM673.369 60.904C673.369 61.9453 672.979 62.9614 672.226 63.7138L675.055 66.5422C676.606 64.9906 677.369 62.9347 677.369 60.904H673.369ZM672.226 63.7138L666.274 69.6658L669.103 72.4942L675.055 66.5422L672.226 63.7138ZM666.274 69.6658C665.476 70.4638 664.441 70.904 663.369 70.904V74.904C665.56 74.904 667.597 74.0002 669.103 72.4942L666.274 69.6658ZM663.369 70.904H631.112V74.904H663.369V70.904ZM641.593 58.984C641.593 59.5825 641.801 60.2367 642.31 60.7462C642.82 61.2558 643.474 61.464 644.073 61.464V57.464C644.383 57.464 644.797 57.5762 645.139 57.9178C645.48 58.2593 645.593 58.6735 645.593 58.984H641.593ZM644.073 61.464H659.912V57.464H644.073V61.464ZM659.912 61.464C660.597 61.464 661.443 61.2422 662.095 60.5902L659.266 57.7618C659.406 57.6224 659.547 57.5494 659.649 57.5124C659.751 57.4755 659.839 57.464 659.912 57.464V61.464ZM662.16 60.5213L663.12 59.4653L660.161 56.7747L659.201 57.8307L662.16 60.5213ZM663.055 59.5342C663.707 58.8823 663.929 58.037 663.929 57.352H659.929C659.929 57.2788 659.94 57.1901 659.977 57.0885C660.014 56.9869 660.087 56.8452 660.226 56.7058L663.055 59.5342ZM663.929 57.352V21.352H659.929V57.352H663.929ZM663.929 21.352C663.929 21.0049 663.873 20.6009 663.713 20.2012C663.563 19.8259 663.229 19.2383 662.535 18.8911L660.746 22.4689C660.244 22.2177 660.054 21.8221 660 21.6868C659.936 21.5271 659.929 21.4111 659.929 21.352H663.929ZM663.12 19.3347L662.16 18.2787L659.201 20.9693L660.161 22.0253L663.12 19.3347ZM662.095 18.2098C661.443 17.5578 660.597 17.336 659.912 17.336V21.336C659.839 21.336 659.751 21.3245 659.649 21.2876C659.547 21.2506 659.406 21.1776 659.266 21.0382L662.095 18.2098ZM659.912 17.336H644.073V21.336H659.912V17.336ZM644.073 17.336C643.474 17.336 642.82 17.5442 642.31 18.0538C641.801 18.5633 641.593 19.2175 641.593 19.816H645.593C645.593 20.1265 645.48 20.5407 645.139 20.8822C644.797 21.2238 644.383 21.336 644.073 21.336V17.336ZM641.593 19.816V58.984H645.593V19.816H641.593ZM723.539 7.89599C723.359 7.89599 723.009 7.82026 722.718 7.50455C722.451 7.21512 722.404 6.90879 722.404 6.75999H726.404C726.404 6.13119 726.212 5.39287 725.657 4.79144C725.078 4.16373 724.296 3.89599 723.539 3.89599V7.89599ZM722.404 6.75999V18.472H726.404V6.75999H722.404ZM722.404 18.472C722.404 18.3232 722.451 18.0169 722.718 17.7274C723.009 17.4117 723.359 17.336 723.539 17.336V21.336C724.296 21.336 725.078 21.0683 725.657 20.4406C726.212 19.8391 726.404 19.1008 726.404 18.472H722.404ZM723.539 17.336H696.948V21.336H723.539V17.336ZM696.948 17.336C696.349 17.336 695.695 17.5442 695.185 18.0538C694.676 18.5633 694.468 19.2175 694.468 19.816H698.468C698.468 20.1265 698.355 20.5407 698.014 20.8822C697.672 21.2238 697.258 21.336 696.948 21.336V17.336ZM694.468 19.816V31.048H698.468V19.816H694.468ZM694.468 31.048C694.468 31.6465 694.676 32.3007 695.185 32.8102C695.695 33.3198 696.349 33.528 696.948 33.528V29.528C697.258 29.528 697.672 29.6402 698.014 29.9818C698.355 30.3233 698.468 30.7375 698.468 31.048H694.468ZM696.948 33.528H720.563V29.528H696.948V33.528ZM720.563 33.528C719.982 33.528 719.683 33.199 719.623 33.1252C719.575 33.0658 719.536 33.0005 719.505 32.9232C719.477 32.8553 719.427 32.7069 719.427 32.488H723.427C723.427 31.7255 723.095 31.0543 722.728 30.6028C722.356 30.145 721.625 29.528 720.563 29.528V33.528ZM719.427 32.488V44.2H723.427V32.488H719.427ZM719.427 44.2C719.427 44.0347 719.489 43.6301 719.86 43.2897C720.205 42.9737 720.542 42.968 720.563 42.968V46.968C721.161 46.968 721.93 46.8183 722.563 46.2383C723.222 45.6339 723.427 44.8453 723.427 44.2H719.427ZM720.563 42.968H696.948V46.968H720.563V42.968ZM696.948 42.968C696.349 42.968 695.695 43.1762 695.185 43.6858C694.676 44.1953 694.468 44.8495 694.468 45.448H698.468C698.468 45.7585 698.355 46.1726 698.014 46.5142C697.672 46.8558 697.258 46.968 696.948 46.968V42.968ZM694.468 45.448V59.08H698.468V45.448H694.468ZM694.468 59.08C694.468 59.6785 694.676 60.3327 695.185 60.8422C695.695 61.3518 696.349 61.56 696.948 61.56V57.56C697.258 57.56 697.672 57.6722 698.014 58.0138C698.355 58.3553 698.468 58.7695 698.468 59.08H694.468ZM696.948 61.56H723.539V57.56H696.948V61.56ZM723.539 61.56C723.518 61.56 723.181 61.5543 722.836 61.2383C722.465 60.8979 722.404 60.4933 722.404 60.328H726.404C726.404 59.6827 726.198 58.8941 725.539 58.2897C724.906 57.7097 724.137 57.56 723.539 57.56V61.56ZM722.404 60.328V72.04H726.404V60.328H722.404ZM722.404 72.04C722.404 71.6189 722.58 71.3692 722.686 71.2551C722.811 71.1202 723.095 70.904 723.539 70.904V74.904C724.464 74.904 725.18 74.4478 725.617 73.9769C726.035 73.5268 726.404 72.8451 726.404 72.04H722.404ZM723.539 70.904H683.987V74.904H723.539V70.904ZM683.987 70.904C684.006 70.904 684.287 70.9073 684.593 71.1695C684.946 71.472 685.028 71.8549 685.028 72.04H681.028C681.028 72.8011 681.301 73.616 681.99 74.2065C682.632 74.7567 683.393 74.904 683.987 74.904V70.904ZM685.028 72.04V6.856H681.028V72.04H685.028ZM685.028 6.856C685.028 7.02249 684.963 7.31665 684.706 7.57421C684.448 7.83177 684.154 7.89599 683.987 7.89599V3.89599C683.245 3.89599 682.471 4.15222 681.877 4.74578C681.284 5.33934 681.028 6.11351 681.028 6.856H685.028ZM683.987 7.89599H723.539V3.89599H683.987V7.89599ZM766.811 71.464L768.6 70.5696L768.567 70.5049L768.53 70.4427L766.811 71.464ZM746.171 36.712L747.89 35.6907L747.864 35.6459L747.835 35.6026L746.171 36.712ZM744.443 7.336L746.162 6.31403L746.158 6.307L744.443 7.336ZM764.987 41.896L763.268 42.918L763.294 42.9624L763.323 43.0054L764.987 41.896ZM767.563 6.75999C767.563 7.07298 767.43 7.38901 767.188 7.61358C766.948 7.8358 766.686 7.89599 766.523 7.89599V3.89599C764.984 3.89599 763.563 5.03844 763.563 6.75999H767.563ZM766.523 7.89599H778.139V3.89599H766.523V7.89599ZM778.139 7.89599C777.958 7.89599 777.609 7.82026 777.317 7.50456C777.05 7.21512 777.003 6.9088 777.003 6.75999H781.003C781.003 6.13119 780.812 5.39287 780.256 4.79143C779.677 4.16373 778.895 3.89599 778.139 3.89599V7.89599ZM777.003 6.75999V71.944H781.003V6.75999H777.003ZM777.003 71.944C777.003 71.7775 777.067 71.4833 777.325 71.2258C777.582 70.9682 777.876 70.904 778.043 70.904V74.904C778.785 74.904 779.559 74.6478 780.153 74.0542C780.747 73.4607 781.003 72.6865 781.003 71.944H777.003ZM778.043 70.904H769.403V74.904H778.043V70.904ZM769.403 70.904C769.168 70.904 768.965 70.8491 768.822 70.7742C768.689 70.704 768.63 70.6298 768.6 70.5696L765.022 72.3584C765.932 74.1788 767.818 74.904 769.403 74.904V70.904ZM768.53 70.4427L747.89 35.6907L744.451 37.7333L765.091 72.4853L768.53 70.4427ZM747.835 35.6026C747.088 34.483 745.843 34.4572 745.13 34.6946C744.51 34.9014 743.499 35.5878 743.499 36.904H747.499C747.499 37.9322 746.727 38.3786 746.395 38.4894C745.971 38.6308 745.061 38.653 744.507 37.8214L747.835 35.6026ZM743.499 36.904V72.04H747.499V36.904H743.499ZM743.499 72.04C743.499 71.4154 744.01 70.904 744.635 70.904V74.904C746.219 74.904 747.499 73.6246 747.499 72.04H743.499ZM744.635 70.904H732.923V74.904H744.635V70.904ZM732.923 70.904C733.547 70.904 734.059 71.4154 734.059 72.04H730.059C730.059 73.6246 731.338 74.904 732.923 74.904V70.904ZM734.059 72.04V6.856H730.059V72.04H734.059ZM734.059 6.856C734.059 7.02249 733.995 7.31665 733.737 7.57421C733.479 7.83177 733.185 7.89599 733.019 7.89599V3.89599C732.276 3.89599 731.502 4.15222 730.909 4.74578C730.315 5.33934 730.059 6.11351 730.059 6.856H734.059ZM733.019 7.89599H741.851V3.89599H733.019V7.89599ZM741.851 7.89599C742.205 7.89599 742.56 8.08589 742.728 8.36499L746.158 6.307C745.173 4.66611 743.417 3.89599 741.851 3.89599V7.89599ZM742.724 8.35796L763.268 42.918L766.706 40.874L746.162 6.31404L742.724 8.35796ZM763.323 43.0054C763.61 43.436 764.049 43.7912 764.608 43.951C765.148 44.1054 765.67 44.0407 766.09 43.873C766.876 43.5583 767.563 42.7613 767.563 41.704H763.563C763.563 40.9347 764.057 40.3777 764.604 40.159C764.903 40.0393 765.293 39.9866 765.707 40.1049C766.141 40.2288 766.46 40.5 766.651 40.7866L763.323 43.0054ZM767.563 41.704V6.75999H763.563V41.704H767.563Z" fill="white"/>
</g>
<defs>
<filter id="filter0_ddddd_255_52" x="0.965088" y="0.895996" width="804.038" height="162.008" filterUnits="userSpaceOnUse" color-interpolation-filters="sRGB">
<feFlood flood-opacity="0" result="BackgroundImageFix"/>
<feColorMatrix in="SourceAlpha" type="matrix" values="0 0 0 0 0 0 0 0 0 0 0 0 0 0 0 0 0 0 127 0" result="hardAlpha"/>
<feOffset/>
<feColorMatrix type="matrix" values="0 0 0 0 0 0 0 0 0 0 0 0 0 0 0 0 0 0 0.1 0"/>
<feBlend mode="normal" in2="BackgroundImageFix" result="effect1_dropShadow_255_52"/>
<feColorMatrix in="SourceAlpha" type="matrix" values="0 0 0 0 0 0 0 0 0 0 0 0 0 0 0 0 0 0 127 0" result="hardAlpha"/>
<feOffset dy="4"/>
<feGaussianBlur stdDeviation="4.5"/>
<feColorMatrix type="matrix" values="0 0 0 0 0 0 0 0 0 0 0 0 0 0 0 0 0 0 0.1 0"/>
<feBlend mode="normal" in2="effect1_dropShadow_255_52" result="effect2_dropShadow_255_52"/>
<feColorMatrix in="SourceAlpha" type="matrix" values="0 0 0 0 0 0 0 0 0 0 0 0 0 0 0 0 0 0 127 0" result="hardAlpha"/>
<feOffset dy="16"/>
<feGaussianBlur stdDeviation="8"/>
<feColorMatrix type="matrix" values="0 0 0 0 0 0 0 0 0 0 0 0 0 0 0 0 0 0 0.09 0"/>
<feBlend mode="normal" in2="effect2_dropShadow_255_52" result="effect3_dropShadow_255_52"/>
<feColorMatrix in="SourceAlpha" type="matrix" values="0 0 0 0 0 0 0 0 0 0 0 0 0 0 0 0 0 0 127 0" result="hardAlpha"/>
<feOffset dy="36"/>
<feGaussianBlur stdDeviation="11"/>
<feColorMatrix type="matrix" values="0 0 0 0 0 0 0 0 0 0 0 0 0 0 0 0 0 0 0.05 0"/>
<feBlend mode="normal" in2="effect3_dropShadow_255_52" result="effect4_dropShadow_255_52"/>
<feColorMatrix in="SourceAlpha" type="matrix" values="0 0 0 0 0 0 0 0 0 0 0 0 0 0 0 0 0 0 127 0" result="hardAlpha"/>
<feOffset dy="64"/>
<feGaussianBlur stdDeviation="13"/>
<feColorMatrix type="matrix" values="0 0 0 0 0 0 0 0 0 0 0 0 0 0 0 0 0 0 0.01 0"/>
<feBlend mode="normal" in2="effect4_dropShadow_255_52" result="effect5_dropShadow_255_52"/>
<feBlend mode="normal" in="SourceGraphic" in2="effect5_dropShadow_255_52" result="shape"/>
</filter>
</defs>
</svg>
