<svg width="413" height="128" viewBox="0 0 413 128" fill="none" xmlns="http://www.w3.org/2000/svg">
<g filter="url(#filter0_ddddd_262_58)">
<path d="M44.5786 6.72L43.1643 8.13421L43.1644 8.13421L44.5786 6.72ZM47.4306 9.572L48.8448 8.15778V8.15778L47.4306 9.572ZM47.4306 20.474L46.0164 19.0598L46.0163 19.0598L47.4306 20.474ZM46.7866 21.118L45.3723 19.7038L44.0464 21.0297L45.2842 22.4382L46.7866 21.118ZM48.1206 22.636L49.657 21.3556L49.6402 21.3355L49.6229 21.3158L48.1206 22.636ZM47.9366 34.136L49.3508 35.5502L49.3508 35.5502L47.9366 34.136ZM44.9926 37.08L43.5784 35.6658L43.5783 35.6658L44.9926 37.08ZM41.6346 31.33L40.2204 29.9158L39.9909 30.1453L39.8457 30.4356L41.6346 31.33ZM42.1406 25.488L43.9294 24.5936L43.7949 24.3246L43.5873 24.107L42.1406 25.488ZM41.1746 24.476L42.6213 23.095L42.6052 23.0782L42.5888 23.0618L41.1746 24.476ZM41.6806 12.93L40.2007 14.2753L40.452 14.5518L40.7861 14.7189L41.6806 12.93ZM41.2206 12.424L42.7004 11.0787L42.6684 11.0434L42.6348 11.0098L41.2206 12.424ZM26.7766 35.954C27.0931 35.954 27.5122 36.0682 27.8573 36.4133C28.2023 36.7583 28.3166 37.1775 28.3166 37.494H24.3166C24.3166 38.0865 24.5228 38.7357 25.0288 39.2417C25.5349 39.7478 26.1841 39.954 26.7766 39.954V35.954ZM28.3166 37.494V6.306H24.3166V37.494H28.3166ZM28.3166 6.306C28.3166 6.62249 28.2023 7.04165 27.8573 7.38671C27.5122 7.73177 27.0931 7.846 26.7766 7.846V3.846C26.1841 3.846 25.5349 4.05223 25.0288 4.55829C24.5228 5.06435 24.3166 5.71351 24.3166 6.306H28.3166ZM26.7766 7.846H42.5086V3.846H26.7766V7.846ZM42.5086 7.846C42.731 7.846 42.9663 7.93618 43.1643 8.13421L45.9928 5.30579C45.0868 4.39981 43.8501 3.846 42.5086 3.846V7.846ZM43.1644 8.13421L46.0163 10.9862L48.8448 8.15778L45.9928 5.30579L43.1644 8.13421ZM46.0163 10.9862C46.1804 11.1503 46.2586 11.3259 46.2586 11.596H50.2586C50.2586 10.3021 49.7847 9.09774 48.8448 8.15778L46.0163 10.9862ZM46.2586 11.596V18.404H50.2586V11.596H46.2586ZM46.2586 18.404C46.2586 18.7082 46.1576 18.9185 46.0164 19.0598L48.8448 21.8882C49.8075 20.9255 50.2586 19.6638 50.2586 18.404H46.2586ZM46.0163 19.0598L45.3723 19.7038L48.2008 22.5322L48.8448 21.8882L46.0163 19.0598ZM45.2842 22.4382L46.6182 23.9562L49.6229 21.3158L48.2889 19.7978L45.2842 22.4382ZM46.5841 23.9164C46.7815 24.1533 46.8106 24.3085 46.8106 24.43H50.8106C50.8106 23.2635 50.3796 22.2227 49.657 21.3556L46.5841 23.9164ZM46.8106 24.43V32.066H50.8106V24.43H46.8106ZM46.8106 32.066C46.8106 32.2885 46.7204 32.5238 46.5224 32.7218L49.3508 35.5502C50.2567 34.6442 50.8106 33.4075 50.8106 32.066H46.8106ZM46.5224 32.7218L43.5784 35.6658L46.4068 38.4942L49.3508 35.5502L46.5224 32.7218ZM43.5783 35.6658C43.3552 35.889 43.1485 35.954 43.0146 35.954V39.954C44.4446 39.954 45.618 39.283 46.4068 38.4942L43.5783 35.6658ZM43.0146 35.954H26.7766V39.954H43.0146V35.954ZM30.7566 31.284C30.7566 31.8075 30.9398 32.3992 31.4056 32.865C31.8714 33.3308 32.4631 33.514 32.9866 33.514V29.514C33.3721 29.514 33.8487 29.6512 34.234 30.0365C34.6193 30.4218 34.7566 30.8985 34.7566 31.284H30.7566ZM32.9866 33.514H41.3126V29.514H32.9866V33.514ZM41.3126 33.514C41.8107 33.514 42.2313 33.3549 42.5371 33.1715C42.8233 32.9997 43.1858 32.6997 43.4234 32.2244L39.8457 30.4356C40.0373 30.0523 40.3078 29.8443 40.4791 29.7415C40.6698 29.6271 40.9524 29.514 41.3126 29.514V33.514ZM43.0488 32.7442L43.6008 32.1922L40.7724 29.3638L40.2204 29.9158L43.0488 32.7442ZM43.6008 32.1922C43.8226 31.9704 44.3706 31.3461 44.3706 30.41H40.3706C40.3706 30.0433 40.4881 29.7804 40.5573 29.6535C40.6306 29.519 40.7098 29.4263 40.7724 29.3638L43.6008 32.1922ZM44.3706 30.41V26.086H40.3706V30.41H44.3706ZM44.3706 26.086C44.3706 25.5564 44.1883 25.1336 44.1177 24.9747C44.0714 24.8706 44.025 24.779 43.9939 24.7185C43.9517 24.6365 43.9468 24.6284 43.9294 24.5936L40.3517 26.3824C40.37 26.4191 40.3878 26.4535 40.4014 26.4796C40.4171 26.51 40.4258 26.5266 40.4367 26.5479C40.4574 26.588 40.4627 26.5999 40.4624 26.5993C40.4616 26.5975 40.4573 26.5876 40.451 26.571C40.4448 26.5546 40.4351 26.5271 40.4245 26.4903C40.4057 26.4245 40.3706 26.2813 40.3706 26.086H44.3706ZM43.5873 24.107L42.6213 23.095L39.7279 25.857L40.6939 26.869L43.5873 24.107ZM42.5888 23.0618C42.0052 22.4782 41.2553 22.2 40.4846 22.2V26.2C40.3971 26.2 40.268 26.1847 40.1213 26.126C39.9722 26.0663 39.85 25.9799 39.7603 25.8902L42.5888 23.0618ZM40.4846 22.2H32.9866V26.2H40.4846V22.2ZM32.9866 22.2C32.4631 22.2 31.8714 22.3832 31.4056 22.849C30.9398 23.3148 30.7566 23.9065 30.7566 24.43H34.7566C34.7566 24.8155 34.6193 25.2922 34.234 25.6775C33.8487 26.0628 33.3721 26.2 32.9866 26.2V22.2ZM30.7566 24.43V31.284H34.7566V24.43H30.7566ZM30.7566 17.53C30.7566 18.0535 30.9398 18.6452 31.4056 19.111C31.8714 19.5768 32.4631 19.76 32.9866 19.76V15.76C33.3721 15.76 33.8487 15.8972 34.234 16.2825C34.6193 16.6678 34.7566 17.1445 34.7566 17.53H30.7566ZM32.9866 19.76H40.8526V15.76H32.9866V19.76ZM40.8526 19.76C41.7887 19.76 42.413 19.212 42.6348 18.9902L39.8063 16.1618C39.8689 16.0993 39.9616 16.0201 40.0961 15.9467C40.2229 15.8775 40.4859 15.76 40.8526 15.76V19.76ZM42.6348 18.9902L43.0948 18.5302L40.2663 15.7018L39.8063 16.1618L42.6348 18.9902ZM43.0948 18.5302C43.6467 17.9783 43.8186 17.283 43.8186 16.748H39.8186C39.8186 16.489 39.8984 16.0697 40.2663 15.7018L43.0948 18.5302ZM43.8186 16.748V13.252H39.8186V16.748H43.8186ZM43.8186 13.252C43.8186 12.9799 43.7759 12.6509 43.641 12.3137C43.5159 12.0009 43.2192 11.4633 42.575 11.1411L40.7861 14.7189C40.2339 14.4427 40.0062 13.9971 39.9271 13.7993C39.8383 13.5771 39.8186 13.3861 39.8186 13.252H43.8186ZM43.1604 11.5847L42.7004 11.0787L39.7407 13.7693L40.2007 14.2753L43.1604 11.5847ZM42.6348 11.0098C42.0828 10.4578 41.3875 10.286 40.8526 10.286V14.286C40.5936 14.286 40.1743 14.2062 39.8064 13.8382L42.6348 11.0098ZM40.8526 10.286H32.9866V14.286H40.8526V10.286ZM32.9866 10.286C32.4631 10.286 31.8714 10.4692 31.4056 10.935C30.9398 11.4008 30.7566 11.9925 30.7566 12.516H34.7566C34.7566 12.9015 34.6193 13.3782 34.234 13.7635C33.8487 14.1488 33.3721 14.286 32.9866 14.286V10.286ZM30.7566 12.516V17.53H34.7566V12.516H30.7566ZM67.134 31.376L68.5482 32.7902L68.5819 32.7566L68.6139 32.7213L67.134 31.376ZM67.594 30.87L66.1798 29.4558L66.1461 29.4894L66.1141 29.5247L67.594 30.87ZM67.594 12.93L66.1141 14.2753L66.3654 14.5518L66.6996 14.7189L67.594 12.93ZM67.134 12.424L68.6139 11.0787L68.5819 11.0434L68.5482 11.0098L67.134 12.424ZM59.59 12.424L61.0042 13.8382L61.2337 13.6087L61.3789 13.3184L59.59 12.424ZM59.084 12.93L59.9784 14.7189L60.2687 14.5737L60.4982 14.3442L59.084 12.93ZM53.38 9.572L51.9658 8.15778L51.9658 8.15779L53.38 9.572ZM56.232 6.72L57.6462 8.13421L57.6462 8.13421L56.232 6.72ZM70.492 6.72L69.0778 8.13421L69.0778 8.13421L70.492 6.72ZM73.344 9.572L74.7582 8.15779L74.7582 8.15778L73.344 9.572ZM73.344 34.228L74.7582 35.6422V35.6422L73.344 34.228ZM70.492 37.08L69.0778 35.6658L70.492 37.08ZM56.232 37.08L57.6462 35.6658L56.232 37.08ZM53.38 34.228L51.9658 35.6422L53.38 34.228ZM58.1758 32.7902C58.376 32.9904 58.6071 33.1436 58.8221 33.2511C59.0406 33.3604 59.4241 33.514 59.912 33.514V29.514C60.2619 29.514 60.5074 29.6216 60.6109 29.6734C60.6751 29.7055 60.7333 29.7408 60.7873 29.7785C60.8336 29.811 60.9126 29.8701 61.0042 29.9618L58.1758 32.7902ZM59.912 33.514H66.766V29.514H59.912V33.514ZM66.766 33.514C67.301 33.514 67.9963 33.3422 68.5482 32.7902L65.7198 29.9618C66.0877 29.5938 66.5071 29.514 66.766 29.514V33.514ZM68.6139 32.7213L69.0739 32.2153L66.1141 29.5247L65.6541 30.0307L68.6139 32.7213ZM69.0082 32.2842C69.5602 31.7323 69.732 31.037 69.732 30.502H65.732C65.732 30.243 65.8119 29.8237 66.1798 29.4558L69.0082 32.2842ZM69.732 30.502V13.252H65.732V30.502H69.732ZM69.732 13.252C69.732 12.9799 69.6893 12.6509 69.5545 12.3137C69.4293 12.0009 69.1327 11.4633 68.4884 11.1411L66.6996 14.7189C66.1473 14.4427 65.9197 13.9971 65.8406 13.7993C65.7517 13.5771 65.732 13.3861 65.732 13.252H69.732ZM69.0739 11.5847L68.6139 11.0787L65.6541 13.7693L66.1141 14.2753L69.0739 11.5847ZM68.5482 11.0098C67.9963 10.4578 67.301 10.286 66.766 10.286V14.286C66.5071 14.286 66.0878 14.2062 65.7198 13.8382L68.5482 11.0098ZM66.766 10.286H59.912V14.286H66.766V10.286ZM59.912 10.286C59.6399 10.286 59.3109 10.3287 58.9737 10.4635C58.6609 10.5887 58.1233 10.8853 57.8012 11.5296L61.3789 13.3184C61.1027 13.8707 60.6571 14.0983 60.4593 14.1775C60.2371 14.2663 60.0461 14.286 59.912 14.286V10.286ZM58.1758 11.0098L57.6698 11.5158L60.4982 14.3442L61.0042 13.8382L58.1758 11.0098ZM58.1896 11.1411C57.5453 11.4633 57.2487 12.0009 57.1236 12.3137C56.9887 12.6509 56.946 12.9799 56.946 13.252H60.946C60.946 13.3861 60.9263 13.5771 60.8375 13.7993C60.7583 13.9971 60.5307 14.4427 59.9784 14.7189L58.1896 11.1411ZM56.946 13.252V30.502H60.946V13.252H56.946ZM56.946 30.502C56.946 31.037 57.1179 31.7323 57.6698 32.2842L60.4982 29.4558C60.8662 29.8237 60.946 30.243 60.946 30.502H56.946ZM57.6698 32.2842L58.1758 32.7902L61.0042 29.9618L60.4982 29.4558L57.6698 32.2842ZM54.506 32.204V11.596H50.506V32.204H54.506ZM54.506 11.596C54.506 11.4073 54.5704 11.21 54.7942 10.9862L51.9658 8.15779C51.0856 9.03796 50.506 10.2207 50.506 11.596H54.506ZM54.7942 10.9862L57.6462 8.13421L54.8178 5.30579L51.9658 8.15778L54.7942 10.9862ZM57.6462 8.13421C57.8701 7.91039 58.0673 7.846 58.256 7.846V3.846C56.8807 3.846 55.698 4.42561 54.8178 5.30579L57.6462 8.13421ZM58.256 7.846H68.422V3.846H58.256V7.846ZM68.422 7.846C68.6445 7.846 68.8798 7.93618 69.0778 8.13421L71.9062 5.30579C71.0003 4.39981 69.7636 3.846 68.422 3.846V7.846ZM69.0778 8.13421L71.9298 10.9862L74.7582 8.15778L71.9062 5.30579L69.0778 8.13421ZM71.9298 10.9862C72.0938 11.1503 72.172 11.3259 72.172 11.596H76.172C76.172 10.3021 75.6982 9.09774 74.7582 8.15779L71.9298 10.9862ZM72.172 11.596V32.204H76.172V11.596H72.172ZM72.172 32.204C72.172 32.4453 72.0822 32.6614 71.9298 32.8138L74.7582 35.6422C75.7098 34.6906 76.172 33.4347 76.172 32.204H72.172ZM71.9298 32.8138L69.0778 35.6658L71.9062 38.4942L74.7582 35.6422L71.9298 32.8138ZM69.0778 35.6658C68.8798 35.8638 68.6445 35.954 68.422 35.954V39.954C69.7636 39.954 71.0003 39.4002 71.9062 38.4942L69.0778 35.6658ZM68.422 35.954H58.256V39.954H68.422V35.954ZM58.256 35.954C58.0673 35.954 57.8701 35.8896 57.6462 35.6658L54.8178 38.4942C55.698 39.3744 56.8807 39.954 58.256 39.954V35.954ZM57.6462 35.6658L54.7942 32.8138L51.9658 35.6422L54.8178 38.4942L57.6462 35.6658ZM54.7942 32.8138C54.5836 32.6031 54.506 32.3637 54.506 32.204H50.506C50.506 33.5163 51.0725 34.7489 51.9658 35.6422L54.7942 32.8138ZM77.3575 10.286C78.2321 10.286 78.9435 10.9974 78.9435 11.872H74.9435C74.9435 13.2066 76.0229 14.286 77.3575 14.286V10.286ZM78.9435 11.872V6.26H74.9435V11.872H78.9435ZM78.9435 6.26C78.9435 7.13457 78.2321 7.846 77.3575 7.846V3.846C76.0229 3.846 74.9435 4.92543 74.9435 6.26H78.9435ZM77.3575 7.846H98.1955V3.846H77.3575V7.846ZM98.1955 7.846C97.865 7.846 97.4028 7.72027 97.0364 7.32331C96.6942 6.95262 96.6095 6.5338 96.6095 6.26H100.61C100.61 5.75619 100.456 5.13037 99.9756 4.61019C99.4712 4.06373 98.8021 3.846 98.1955 3.846V7.846ZM96.6095 6.26V11.872H100.61V6.26H96.6095ZM96.6095 11.872C96.6095 11.5982 96.6942 11.1794 97.0364 10.8087C97.4028 10.4117 97.865 10.286 98.1955 10.286V14.286C98.8021 14.286 99.4712 14.0683 99.9756 13.5218C100.456 13.0016 100.61 12.3758 100.61 11.872H96.6095ZM98.1955 10.286H91.2495V14.286H98.1955V10.286ZM91.2495 10.286C90.726 10.286 90.1344 10.4692 89.6686 10.935C89.2027 11.4008 89.0195 11.9925 89.0195 12.516H93.0195C93.0195 12.9015 92.8823 13.3782 92.497 13.7635C92.1117 14.1488 91.635 14.286 91.2495 14.286V10.286ZM89.0195 12.516V37.54H93.0195V12.516H89.0195ZM89.0195 37.54C89.0195 37.102 89.2028 36.6735 89.5321 36.3677C89.8589 36.0642 90.2461 35.954 90.5595 35.954V39.954C91.7979 39.954 93.0195 39.0116 93.0195 37.54H89.0195ZM90.5595 35.954H84.9935V39.954H90.5595V35.954ZM84.9935 35.954C85.3241 35.954 85.7862 36.0797 86.1526 36.4767C86.4948 36.8474 86.5795 37.2662 86.5795 37.54H82.5795C82.5795 38.0438 82.7332 38.6696 83.2134 39.1898C83.7178 39.7363 84.387 39.954 84.9935 39.954V35.954ZM86.5795 37.54V12.516H82.5795V37.54H86.5795ZM86.5795 12.516C86.5795 11.9925 86.3963 11.4008 85.9305 10.935C85.4647 10.4692 84.873 10.286 84.3495 10.286V14.286C83.964 14.286 83.4874 14.1488 83.1021 13.7635C82.7167 13.3782 82.5795 12.9015 82.5795 12.516H86.5795ZM84.3495 10.286H77.3575V14.286H84.3495V10.286ZM96.9399 37.356L98.8629 37.9054L98.8657 37.8957L98.8684 37.8859L96.9399 37.356ZM105.358 6.72L107.286 7.24991L107.293 7.22756L107.298 7.20507L105.358 6.72ZM112.626 6.72L110.653 7.0488L110.67 7.15187L110.698 7.2526L112.626 6.72ZM121.09 37.356L123.07 37.0732L123.052 36.9466L123.018 36.8234L121.09 37.356ZM114.466 37.678L116.406 37.1929L116.402 37.1755L116.397 37.1581L114.466 37.678ZM113.5 34.09L111.539 34.4822L111.552 34.5466L111.569 34.6099L113.5 34.09ZM104.53 34.09L106.455 34.6329L106.476 34.5583L106.491 34.4822L104.53 34.09ZM103.518 37.678L101.593 37.1351L101.585 37.1639L101.578 37.1929L103.518 37.678ZM106.416 27.006L108.313 27.6385L108.327 27.5966L108.339 27.5541L106.416 27.006ZM111.568 27.006L109.644 27.5541L109.657 27.5965L109.67 27.6384L111.568 27.006ZM109.13 18.45L107.19 18.9351L107.197 18.9667L107.206 18.9981L109.13 18.45ZM108.854 18.45L110.777 18.9981L110.786 18.9667L110.794 18.9351L108.854 18.45ZM97.3999 35.954C97.8215 35.954 98.2735 36.1427 98.5844 36.5365C98.9066 36.9446 98.9891 37.4637 98.8629 37.9054L95.0168 36.8066C94.5332 38.4992 95.8475 39.954 97.3999 39.954V35.954ZM98.8684 37.8859L107.286 7.24991L103.429 6.19009L95.0113 36.8261L98.8684 37.8859ZM107.298 7.20507C107.258 7.36376 107.152 7.54671 106.97 7.68148C106.797 7.81044 106.623 7.846 106.508 7.846V3.846C105.121 3.846 103.798 4.71506 103.418 6.23493L107.298 7.20507ZM106.508 7.846H111.476V3.846H106.508V7.846ZM111.476 7.846C111.375 7.846 111.22 7.81812 111.052 7.69735C110.866 7.5626 110.7 7.3318 110.653 7.0488L114.599 6.3912C114.304 4.62065 112.723 3.846 111.476 3.846V7.846ZM110.698 7.2526L119.162 37.8886L123.018 36.8234L114.554 6.1874L110.698 7.2526ZM119.11 37.6388C118.992 36.815 119.63 35.954 120.584 35.954V39.954C122.182 39.954 123.279 38.541 123.07 37.0732L119.11 37.6388ZM120.584 35.954H114.88V39.954H120.584V35.954ZM114.88 35.954C115.103 35.954 115.385 36.0066 115.669 36.1817C115.977 36.3713 116.286 36.7111 116.406 37.1929L112.526 38.1631C112.879 39.5758 114.181 39.954 114.88 39.954V35.954ZM116.397 37.1581L115.431 33.5701L111.569 34.6099L112.535 38.1979L116.397 37.1581ZM115.461 33.6978C115.34 33.0903 114.997 32.5542 114.483 32.1984C114.006 31.8682 113.494 31.768 113.086 31.768V35.768C112.862 35.768 112.534 35.7138 112.206 35.4871C111.842 35.2348 111.614 34.8596 111.539 34.4822L115.461 33.6978ZM113.086 31.768H104.944V35.768H113.086V31.768ZM104.944 31.768C104.536 31.768 104.024 31.8682 103.547 32.1984C103.033 32.5542 102.69 33.0904 102.569 33.6978L106.491 34.4822C106.416 34.8596 106.188 35.2348 105.824 35.4871C105.496 35.7138 105.168 35.768 104.944 35.768V31.768ZM102.605 33.5471L101.593 37.1351L105.443 38.2209L106.455 34.6329L102.605 33.5471ZM101.578 37.1929C101.695 36.7233 101.987 36.4021 102.259 36.2209C102.508 36.0549 102.812 35.954 103.15 35.954V39.954C103.94 39.954 105.131 39.4712 105.458 38.1631L101.578 37.1929ZM103.15 35.954H97.3999V39.954H103.15V35.954ZM104.518 26.3735C104.292 27.0523 104.416 27.7563 104.757 28.2925C105.132 28.882 105.812 29.328 106.646 29.328V25.328C107.296 25.328 107.837 25.682 108.132 26.145C108.393 26.5547 108.493 27.0977 108.313 27.6385L104.518 26.3735ZM106.646 29.328H111.338V25.328H106.646V29.328ZM111.338 29.328C112.172 29.328 112.851 28.882 113.226 28.2925C113.568 27.7563 113.691 27.0523 113.465 26.3736L109.67 27.6384C109.49 27.0977 109.591 26.5547 109.852 26.145C110.146 25.682 110.688 25.328 111.338 25.328V29.328ZM113.491 26.4579L111.053 17.9019L107.206 18.9981L109.644 27.5541L113.491 26.4579ZM111.07 17.9649C110.905 17.3026 110.26 16.312 108.992 16.312C107.724 16.312 107.079 17.3026 106.914 17.9649L110.794 18.9351C110.675 19.4134 110.145 20.312 108.992 20.312C107.839 20.312 107.309 19.4134 107.19 18.9351L111.07 17.9649ZM106.93 17.9019L104.492 26.4579L108.339 27.5541L110.777 18.9981L106.93 17.9019ZM139.73 37.264L141.519 36.3696L141.487 36.3049L141.45 36.2427L139.73 37.264ZM129.84 20.612L131.56 19.5907L131.533 19.5459L131.504 19.5026L129.84 20.612ZM129.012 6.536L130.731 5.51403L130.727 5.50701L129.012 6.536ZM138.856 23.096L137.137 24.118L137.164 24.1624L137.192 24.2054L138.856 23.096ZM141.132 6.26C141.132 6.69798 140.949 7.12652 140.62 7.43233C140.293 7.7358 139.906 7.846 139.592 7.846V3.846C138.354 3.846 137.132 4.78844 137.132 6.26H141.132ZM139.592 7.846H145.158V3.846H139.592V7.846ZM145.158 7.846C144.828 7.846 144.366 7.72027 143.999 7.32331C143.657 6.95262 143.572 6.5338 143.572 6.26H147.572C147.572 5.75619 147.419 5.13037 146.938 4.61019C146.434 4.06373 145.765 3.846 145.158 3.846V7.846ZM143.572 6.26V37.494H147.572V6.26H143.572ZM143.572 37.494C143.572 37.1775 143.687 36.7583 144.032 36.4133C144.377 36.0682 144.796 35.954 145.112 35.954V39.954C145.705 39.954 146.354 39.7478 146.86 39.2417C147.366 38.7357 147.572 38.0865 147.572 37.494H143.572ZM145.112 35.954H140.972V39.954H145.112V35.954ZM140.972 35.954C141.013 35.954 141.084 35.9616 141.179 36.0117C141.283 36.0665 141.424 36.1798 141.519 36.3696L137.941 38.1584C138.602 39.4788 139.937 39.954 140.972 39.954V35.954ZM141.45 36.2427L131.56 19.5907L128.121 21.6333L138.011 38.2853L141.45 36.2427ZM131.504 19.5026C130.808 18.458 129.65 18.4447 129.012 18.6571C128.467 18.8389 127.518 19.4628 127.518 20.704H131.518C131.518 21.8072 130.684 22.3161 130.277 22.4519C129.778 22.6183 128.781 22.628 128.176 21.7214L131.504 19.5026ZM127.518 20.704V37.54H131.518V20.704H127.518ZM127.518 37.54C127.518 36.6654 128.23 35.954 129.104 35.954V39.954C130.439 39.954 131.518 38.8746 131.518 37.54H127.518ZM129.104 35.954H123.492V39.954H129.104V35.954ZM123.492 35.954C124.367 35.954 125.078 36.6654 125.078 37.54H121.078C121.078 38.8746 122.158 39.954 123.492 39.954V35.954ZM125.078 37.54V6.306H121.078V37.54H125.078ZM125.078 6.306C125.078 6.62249 124.964 7.04165 124.619 7.38671C124.274 7.73177 123.855 7.846 123.538 7.846V3.846C122.946 3.846 122.297 4.05223 121.791 4.55829C121.285 5.06435 121.078 5.71351 121.078 6.306H125.078ZM123.538 7.846H127.77V3.846H123.538V7.846ZM127.77 7.846C127.676 7.846 127.598 7.82472 127.529 7.78833C127.453 7.74859 127.364 7.67691 127.297 7.56499L130.727 5.50701C130.043 4.36611 128.836 3.846 127.77 3.846V7.846ZM127.293 7.55796L137.137 24.118L140.575 22.074L130.731 5.51404L127.293 7.55796ZM137.192 24.2054C137.454 24.5985 137.862 24.9318 138.389 25.0823C138.896 25.2273 139.383 25.1657 139.772 25.0105C140.496 24.7208 141.132 23.9863 141.132 23.004H137.132C137.132 22.1597 137.677 21.5402 138.286 21.2965C138.617 21.1643 139.041 21.1085 139.488 21.2362C139.954 21.3694 140.304 21.6625 140.52 21.9866L137.192 24.2054ZM141.132 23.004V6.26H137.132V23.004H141.132ZM151.268 6.26C151.268 7.13457 150.556 7.846 149.682 7.846V3.846C148.347 3.846 147.268 4.92543 147.268 6.26H151.268ZM149.682 7.846H155.294V3.846H149.682V7.846ZM155.294 7.846C154.419 7.846 153.708 7.13456 153.708 6.26H157.708C157.708 4.92543 156.628 3.846 155.294 3.846V7.846ZM153.708 6.26V37.54H157.708V6.26H153.708ZM153.708 37.54C153.708 36.6654 154.419 35.954 155.294 35.954V39.954C156.628 39.954 157.708 38.8746 157.708 37.54H153.708ZM155.294 35.954H149.682V39.954H155.294V35.954ZM149.682 35.954C150.556 35.954 151.268 36.6654 151.268 37.54H147.268C147.268 38.8746 148.347 39.954 149.682 39.954V35.954ZM151.268 37.54V6.26H147.268V37.54H151.268ZM174.463 12.93L172.983 14.2753L173.235 14.5518L173.569 14.7189L174.463 12.93ZM174.003 12.424L175.483 11.0787L175.451 11.0434L175.417 11.0098L174.003 12.424ZM166.459 12.424L167.873 13.8382L168.103 13.6087L168.248 13.3184L166.459 12.424ZM165.953 12.93L166.848 14.7189L167.138 14.5737L167.367 14.3442L165.953 12.93ZM174.003 31.376L175.417 32.7902L175.451 32.7566L175.483 32.7213L174.003 31.376ZM174.463 30.87L173.049 29.4558L173.015 29.4894L172.983 29.5247L174.463 30.87ZM180.213 34.228L181.627 35.6422L181.627 35.6422L180.213 34.228ZM177.361 37.08L175.947 35.6658L177.361 37.08ZM163.101 37.08L164.515 35.6658L163.101 37.08ZM160.249 34.228L158.835 35.6422L160.249 34.228ZM160.249 9.572L158.835 8.15778V8.15779L160.249 9.572ZM163.101 6.72L164.515 8.13421V8.13421L163.101 6.72ZM177.361 6.72L175.947 8.13421V8.13421L177.361 6.72ZM180.213 9.572L181.627 8.15779L181.627 8.15778L180.213 9.572ZM179.041 16.794C179.041 16.5202 179.126 16.1014 179.468 15.7307C179.834 15.3337 180.297 15.208 180.627 15.208V19.208C181.234 19.208 181.903 18.9903 182.407 18.4438C182.887 17.9236 183.041 17.2978 183.041 16.794H179.041ZM180.627 15.208H175.061V19.208H180.627V15.208ZM175.061 15.208C175.375 15.208 175.762 15.3182 176.089 15.6217C176.418 15.9275 176.601 16.356 176.601 16.794H172.601C172.601 18.2656 173.823 19.208 175.061 19.208V15.208ZM176.601 16.794V13.252H172.601V16.794H176.601ZM176.601 13.252C176.601 12.9799 176.558 12.6509 176.424 12.3137C176.298 12.0009 176.002 11.4633 175.358 11.1411L173.569 14.7189C173.016 14.4427 172.789 13.9971 172.71 13.7993C172.621 13.5771 172.601 13.3861 172.601 13.252H176.601ZM175.943 11.5847L175.483 11.0787L172.523 13.7693L172.983 14.2753L175.943 11.5847ZM175.417 11.0098C174.865 10.4578 174.17 10.286 173.635 10.286V14.286C173.376 14.286 172.957 14.2062 172.589 13.8382L175.417 11.0098ZM173.635 10.286H166.781V14.286H173.635V10.286ZM166.781 10.286C166.509 10.286 166.18 10.3287 165.843 10.4635C165.53 10.5887 164.992 10.8853 164.67 11.5296L168.248 13.3184C167.972 13.8707 167.526 14.0983 167.328 14.1775C167.106 14.2663 166.915 14.286 166.781 14.286V10.286ZM165.045 11.0098L164.539 11.5158L167.367 14.3442L167.873 13.8382L165.045 11.0098ZM165.059 11.1411C164.414 11.4633 164.118 12.0009 163.993 12.3137C163.858 12.6509 163.815 12.9799 163.815 13.252H167.815C167.815 13.3861 167.795 13.5771 167.707 13.7993C167.627 13.9971 167.4 14.4427 166.848 14.7189L165.059 11.1411ZM163.815 13.252V30.502H167.815V13.252H163.815ZM163.815 30.502C163.815 31.037 163.987 31.7323 164.539 32.2842L167.367 29.4558C167.735 29.8237 167.815 30.243 167.815 30.502H163.815ZM164.539 32.2842L165.045 32.7902L167.873 29.9618L167.367 29.4558L164.539 32.2842ZM165.045 32.7902C165.209 32.9543 165.453 33.1569 165.791 33.3071C166.137 33.4612 166.479 33.514 166.781 33.514V29.514C166.946 29.514 167.172 29.5438 167.415 29.6519C167.65 29.7561 167.801 29.8897 167.873 29.9618L165.045 32.7902ZM166.781 33.514H173.635V29.514H166.781V33.514ZM173.635 33.514C174.17 33.514 174.865 33.3422 175.417 32.7902L172.589 29.9618C172.957 29.5938 173.376 29.514 173.635 29.514V33.514ZM175.483 32.7213L175.943 32.2153L172.983 29.5247L172.523 30.0307L175.483 32.7213ZM175.877 32.2842C176.429 31.7323 176.601 31.037 176.601 30.502H172.601C172.601 30.243 172.681 29.8237 173.049 29.4558L175.877 32.2842ZM176.601 30.502V27.006H172.601V30.502H176.601ZM176.601 27.006C176.601 27.3411 176.47 27.8365 176.029 28.214C175.636 28.5511 175.23 28.592 175.061 28.592V24.592C174.616 24.592 173.98 24.7019 173.426 25.177C172.825 25.6925 172.601 26.3949 172.601 27.006H176.601ZM175.061 28.592H180.627V24.592H175.061V28.592ZM180.627 28.592C180.457 28.592 179.962 28.5481 179.523 28.1097C179.085 27.6714 179.041 27.1763 179.041 27.006H183.041C183.041 26.5597 182.928 25.8576 182.352 25.2813C181.776 24.7049 181.073 24.592 180.627 24.592V28.592ZM179.041 27.006V32.204H183.041V27.006H179.041ZM179.041 32.204C179.041 32.4453 178.951 32.6614 178.799 32.8138L181.627 35.6422C182.579 34.6906 183.041 33.4347 183.041 32.204H179.041ZM178.799 32.8138L175.947 35.6658L178.775 38.4942L181.627 35.6422L178.799 32.8138ZM175.947 35.6658C175.749 35.8638 175.514 35.954 175.291 35.954V39.954C176.633 39.954 177.869 39.4002 178.775 38.4942L175.947 35.6658ZM175.291 35.954H165.125V39.954H175.291V35.954ZM165.125 35.954C164.936 35.954 164.739 35.8896 164.515 35.6658L161.687 38.4942C162.567 39.3744 163.75 39.954 165.125 39.954V35.954ZM164.515 35.6658L161.663 32.8138L158.835 35.6422L161.687 38.4942L164.515 35.6658ZM161.663 32.8138C161.453 32.6031 161.375 32.3637 161.375 32.204H157.375C157.375 33.5163 157.942 34.7489 158.835 35.6422L161.663 32.8138ZM161.375 32.204V11.596H157.375V32.204H161.375ZM161.375 11.596C161.375 11.4073 161.44 11.21 161.663 10.9862L158.835 8.15779C157.955 9.03796 157.375 10.2207 157.375 11.596H161.375ZM161.663 10.9862L164.515 8.13421L161.687 5.30579L158.835 8.15778L161.663 10.9862ZM164.515 8.13421C164.739 7.91039 164.936 7.846 165.125 7.846V3.846C163.75 3.846 162.567 4.42561 161.687 5.30579L164.515 8.13421ZM165.125 7.846H175.291V3.846H165.125V7.846ZM175.291 7.846C175.514 7.846 175.749 7.93618 175.947 8.13421L178.775 5.30579C177.869 4.39981 176.633 3.846 175.291 3.846V7.846ZM175.947 8.13421L178.799 10.9862L181.627 8.15778L178.775 5.30579L175.947 8.13421ZM178.799 10.9862C178.963 11.1503 179.041 11.3259 179.041 11.596H183.041C183.041 10.3021 182.567 9.09774 181.627 8.15779L178.799 10.9862ZM179.041 11.596V16.794H183.041V11.596H179.041ZM183.055 37.356L184.978 37.9054L184.981 37.8957L184.984 37.8859L183.055 37.356ZM191.473 6.72L193.402 7.24991L193.408 7.22756L193.413 7.20507L191.473 6.72ZM198.741 6.72L196.768 7.0488L196.785 7.15187L196.813 7.2526L198.741 6.72ZM207.205 37.356L209.185 37.0732L209.167 36.9466L209.133 36.8234L207.205 37.356ZM200.581 37.678L202.521 37.1929L202.517 37.1755L202.512 37.1581L200.581 37.678ZM199.615 34.09L197.654 34.4822L197.667 34.5466L197.684 34.6099L199.615 34.09ZM190.645 34.09L192.57 34.6329L192.591 34.5583L192.606 34.4822L190.645 34.09ZM189.633 37.678L187.708 37.1351L187.7 37.1639L187.693 37.1929L189.633 37.678ZM192.531 27.006L194.428 27.6385L194.442 27.5966L194.455 27.5541L192.531 27.006ZM197.683 27.006L195.76 27.5541L195.772 27.5965L195.786 27.6384L197.683 27.006ZM195.245 18.45L193.305 18.9351L193.313 18.9667L193.322 18.9981L195.245 18.45ZM194.969 18.45L196.893 18.9981L196.901 18.9667L196.909 18.9351L194.969 18.45ZM183.515 35.954C183.937 35.954 184.389 36.1427 184.7 36.5365C185.022 36.9446 185.104 37.4637 184.978 37.9054L181.132 36.8066C180.648 38.4992 181.963 39.954 183.515 39.954V35.954ZM184.984 37.8859L193.402 7.24991L189.545 6.19009L181.127 36.8261L184.984 37.8859ZM193.413 7.20507C193.374 7.36376 193.267 7.54671 193.085 7.68148C192.912 7.81044 192.738 7.846 192.623 7.846V3.846C191.236 3.846 189.913 4.71506 189.533 6.23493L193.413 7.20507ZM192.623 7.846H197.591V3.846H192.623V7.846ZM197.591 7.846C197.49 7.846 197.335 7.81812 197.168 7.69735C196.981 7.5626 196.815 7.3318 196.768 7.0488L200.714 6.3912C200.419 4.62065 198.838 3.846 197.591 3.846V7.846ZM196.813 7.2526L205.277 37.8886L209.133 36.8234L200.669 6.1874L196.813 7.2526ZM205.225 37.6388C205.107 36.815 205.745 35.954 206.699 35.954V39.954C208.297 39.954 209.395 38.541 209.185 37.0732L205.225 37.6388ZM206.699 35.954H200.995V39.954H206.699V35.954ZM200.995 35.954C201.218 35.954 201.5 36.0066 201.785 36.1817C202.093 36.3713 202.401 36.7111 202.521 37.1929L198.641 38.1631C198.994 39.5758 200.296 39.954 200.995 39.954V35.954ZM202.512 37.1581L201.546 33.5701L197.684 34.6099L198.65 38.1979L202.512 37.1581ZM201.576 33.6978C201.455 33.0903 201.112 32.5542 200.598 32.1984C200.121 31.8682 199.609 31.768 199.201 31.768V35.768C198.977 35.768 198.649 35.7138 198.321 35.4871C197.957 35.2348 197.729 34.8596 197.654 34.4822L201.576 33.6978ZM199.201 31.768H191.059V35.768H199.201V31.768ZM191.059 31.768C190.651 31.768 190.139 31.8682 189.662 32.1984C189.148 32.5542 188.805 33.0904 188.684 33.6978L192.606 34.4822C192.531 34.8596 192.303 35.2348 191.939 35.4871C191.611 35.7138 191.283 35.768 191.059 35.768V31.768ZM188.72 33.5471L187.708 37.1351L191.558 38.2209L192.57 34.6329L188.72 33.5471ZM187.693 37.1929C187.81 36.7233 188.102 36.4021 188.374 36.2209C188.623 36.0549 188.927 35.954 189.265 35.954V39.954C190.055 39.954 191.246 39.4712 191.573 38.1631L187.693 37.1929ZM189.265 35.954H183.515V39.954H189.265V35.954ZM190.634 26.3735C190.407 27.0523 190.531 27.7563 190.873 28.2925C191.248 28.882 191.927 29.328 192.761 29.328V25.328C193.411 25.328 193.953 25.682 194.247 26.145C194.508 26.5547 194.609 27.0977 194.428 27.6385L190.634 26.3735ZM192.761 29.328H197.453V25.328H192.761V29.328ZM197.453 29.328C198.287 29.328 198.967 28.882 199.342 28.2925C199.683 27.7563 199.807 27.0523 199.58 26.3736L195.786 27.6384C195.605 27.0977 195.706 26.5547 195.967 26.145C196.262 25.682 196.803 25.328 197.453 25.328V29.328ZM199.607 26.4579L197.169 17.9019L193.322 18.9981L195.76 27.5541L199.607 26.4579ZM197.185 17.9649C197.02 17.3026 196.375 16.312 195.107 16.312C193.839 16.312 193.194 17.3026 193.029 17.9649L196.909 18.9351C196.79 19.4134 196.26 20.312 195.107 20.312C193.954 20.312 193.424 19.4134 193.305 18.9351L197.185 17.9649ZM193.046 17.9019L190.608 26.4579L194.455 27.5541L196.893 18.9981L193.046 17.9019ZM226.858 37.908V35.908L226.852 35.908L226.858 37.908ZM209.654 37.954V39.954L209.659 39.954L209.654 37.954ZM211.194 6.26C211.194 7.13457 210.482 7.846 209.608 7.846V3.846C208.273 3.846 207.194 4.92543 207.194 6.26H211.194ZM209.608 7.846H215.22V3.846H209.608V7.846ZM215.22 7.846C214.345 7.846 213.634 7.13456 213.634 6.26H217.634C217.634 4.92543 216.554 3.846 215.22 3.846V7.846ZM213.634 6.26V31.284H217.634V6.26H213.634ZM213.634 31.284C213.634 31.8075 213.817 32.3992 214.283 32.865C214.748 33.3308 215.34 33.514 215.864 33.514V29.514C216.249 29.514 216.726 29.6512 217.111 30.0365C217.496 30.4218 217.634 30.8985 217.634 31.284H213.634ZM215.864 33.514H226.858V29.514H215.864V33.514ZM226.858 33.514C226.586 33.514 226.206 33.4326 225.859 33.1385C225.478 32.8163 225.272 32.3468 225.272 31.882H229.272C229.272 31.1872 228.973 30.5337 228.443 30.085C227.946 29.6644 227.359 29.514 226.858 29.514V33.514ZM225.272 31.882V37.494H229.272V31.882H225.272ZM225.272 37.494C225.272 37.1358 225.378 36.8689 225.455 36.7204C225.536 36.5627 225.631 36.4439 225.719 36.3558C225.807 36.2676 225.926 36.1725 226.084 36.0912C226.232 36.0147 226.499 35.908 226.858 35.908V39.908C227.695 39.908 228.278 39.4536 228.548 39.1842C228.817 38.9148 229.272 38.3317 229.272 37.494H225.272ZM226.852 35.908L209.648 35.954L209.659 39.954L226.863 39.908L226.852 35.908ZM209.654 35.954C209.97 35.954 210.389 36.0682 210.734 36.4133C211.079 36.7583 211.194 37.1775 211.194 37.494H207.194C207.194 38.0865 207.4 38.7357 207.906 39.2417C208.412 39.7478 209.061 39.954 209.654 39.954V35.954ZM211.194 37.494V6.26H207.194V37.494H211.194ZM260.983 34.228L262.397 35.6422L262.397 35.6422L260.983 34.228ZM258.131 37.08L256.716 35.6658L258.131 37.08ZM243.871 37.08L245.285 35.6658L243.871 37.08ZM241.019 34.228L239.604 35.6422L241.019 34.228ZM241.019 9.572L239.604 8.15778V8.15779L241.019 9.572ZM243.871 6.72L245.285 8.13421V8.13421L243.871 6.72ZM258.131 6.72L256.716 8.13421V8.13421L258.131 6.72ZM260.983 9.572L262.397 8.15779L262.397 8.15778L260.983 9.572ZM255.233 12.93L253.753 14.2753L254.004 14.5518L254.338 14.7189L255.233 12.93ZM254.773 12.424L256.253 11.0787L256.221 11.0434L256.187 11.0098L254.773 12.424ZM247.229 12.424L248.643 13.8382L248.872 13.6087L249.018 13.3184L247.229 12.424ZM246.723 12.93L247.617 14.7189L247.907 14.5737L248.137 14.3442L246.723 12.93ZM254.773 31.376L256.187 32.7902L256.221 32.7566L256.253 32.7213L254.773 31.376ZM255.233 30.87L253.818 29.4558L253.785 29.4894L253.753 29.5247L255.233 30.87ZM250.495 23.902C250.811 23.902 251.23 24.0162 251.575 24.3613C251.92 24.7063 252.035 25.1255 252.035 25.442H248.035C248.035 26.0345 248.241 26.6837 248.747 27.1897C249.253 27.6958 249.902 27.902 250.495 27.902V23.902ZM252.035 25.442V19.876H248.035V25.442H252.035ZM252.035 19.876C252.035 20.2111 251.903 20.7065 251.463 21.084C251.069 21.4211 250.664 21.462 250.495 21.462V17.462C250.05 17.462 249.414 17.5718 248.86 18.047C248.258 18.5625 248.035 19.2649 248.035 19.876H252.035ZM250.495 21.462H261.351V17.462H250.495V21.462ZM261.351 21.462C261.034 21.462 260.615 21.3478 260.27 21.0027C259.925 20.6577 259.811 20.2385 259.811 19.922H263.811C263.811 19.3295 263.604 18.6803 263.098 18.1743C262.592 17.6682 261.943 17.462 261.351 17.462V21.462ZM259.811 19.922V32.204H263.811V19.922H259.811ZM259.811 32.204C259.811 32.4453 259.721 32.6614 259.568 32.8138L262.397 35.6422C263.348 34.6906 263.811 33.4347 263.811 32.204H259.811ZM259.568 32.8138L256.716 35.6658L259.545 38.4942L262.397 35.6422L259.568 32.8138ZM256.716 35.6658C256.518 35.8638 256.283 35.954 256.061 35.954V39.954C257.402 39.954 258.639 39.4002 259.545 38.4942L256.716 35.6658ZM256.061 35.954H245.895V39.954H256.061V35.954ZM245.895 35.954C245.706 35.954 245.509 35.8896 245.285 35.6658L242.456 38.4942C243.337 39.3744 244.519 39.954 245.895 39.954V35.954ZM245.285 35.6658L242.433 32.8138L239.604 35.6422L242.456 38.4942L245.285 35.6658ZM242.433 32.8138C242.222 32.6031 242.145 32.3637 242.145 32.204H238.145C238.145 33.5163 238.711 34.7489 239.604 35.6422L242.433 32.8138ZM242.145 32.204V11.596H238.145V32.204H242.145ZM242.145 11.596C242.145 11.4073 242.209 11.21 242.433 10.9862L239.604 8.15779C238.724 9.03796 238.145 10.2207 238.145 11.596H242.145ZM242.433 10.9862L245.285 8.13421L242.456 5.30579L239.604 8.15778L242.433 10.9862ZM245.285 8.13421C245.509 7.91039 245.706 7.846 245.895 7.846V3.846C244.519 3.846 243.337 4.42561 242.456 5.30579L245.285 8.13421ZM245.895 7.846H256.061V3.846H245.895V7.846ZM256.061 7.846C256.283 7.846 256.518 7.93618 256.716 8.13421L259.545 5.30579C258.639 4.39981 257.402 3.846 256.061 3.846V7.846ZM256.716 8.13421L259.568 10.9862L262.397 8.15778L259.545 5.30579L256.716 8.13421ZM259.568 10.9862C259.733 11.1503 259.811 11.3259 259.811 11.596H263.811C263.811 10.3021 263.337 9.09774 262.397 8.15779L259.568 10.9862ZM259.811 11.596V16.012H263.811V11.596H259.811ZM259.811 16.012C259.811 15.7382 259.895 15.3194 260.238 14.9487C260.604 14.5517 261.066 14.426 261.397 14.426V18.426C262.003 18.426 262.672 18.2083 263.177 17.6618C263.657 17.1416 263.811 16.5158 263.811 16.012H259.811ZM261.397 14.426H255.831V18.426H261.397V14.426ZM255.831 14.426C256.144 14.426 256.531 14.5362 256.858 14.8397C257.187 15.1455 257.371 15.574 257.371 16.012H253.371C253.371 17.4836 254.592 18.426 255.831 18.426V14.426ZM257.371 16.012V13.252H253.371V16.012H257.371ZM257.371 13.252C257.371 12.9799 257.328 12.6509 257.193 12.3137C257.068 12.0009 256.771 11.4633 256.127 11.1411L254.338 14.7189C253.786 14.4427 253.558 13.9971 253.479 13.7993C253.39 13.5771 253.371 13.3861 253.371 13.252H257.371ZM256.713 11.5847L256.253 11.0787L253.293 13.7693L253.753 14.2753L256.713 11.5847ZM256.187 11.0098C255.635 10.4578 254.94 10.286 254.405 10.286V14.286C254.146 14.286 253.726 14.2062 253.358 13.8382L256.187 11.0098ZM254.405 10.286H247.551V14.286H254.405V10.286ZM247.551 10.286C247.279 10.286 246.95 10.3287 246.612 10.4635C246.3 10.5887 245.762 10.8853 245.44 11.5296L249.018 13.3184C248.741 13.8707 248.296 14.0983 248.098 14.1775C247.876 14.2663 247.685 14.286 247.551 14.286V10.286ZM245.814 11.0098L245.308 11.5158L248.137 14.3442L248.643 13.8382L245.814 11.0098ZM245.828 11.1411C245.184 11.4633 244.887 12.0009 244.762 12.3137C244.627 12.6509 244.585 12.9799 244.585 13.252H248.585C248.585 13.3861 248.565 13.5771 248.476 13.7993C248.397 13.9971 248.169 14.4427 247.617 14.7189L245.828 11.1411ZM244.585 13.252V30.502H248.585V13.252H244.585ZM244.585 30.502C244.585 31.037 244.757 31.7323 245.308 32.2842L248.137 29.4558C248.505 29.8237 248.585 30.243 248.585 30.502H244.585ZM245.308 32.2842L245.814 32.7902L248.643 29.9618L248.137 29.4558L245.308 32.2842ZM245.814 32.7902C245.979 32.9543 246.222 33.1569 246.56 33.3071C246.907 33.4612 247.248 33.514 247.551 33.514V29.514C247.715 29.514 247.941 29.5438 248.185 29.6519C248.419 29.7561 248.571 29.8897 248.643 29.9618L245.814 32.7902ZM247.551 33.514H254.405V29.514H247.551V33.514ZM254.405 33.514C254.94 33.514 255.635 33.3422 256.187 32.7902L253.358 29.9618C253.726 29.5938 254.146 29.514 254.405 29.514V33.514ZM256.253 32.7213L256.713 32.2153L253.753 29.5247L253.293 30.0307L256.253 32.7213ZM256.647 32.2842C257.199 31.7323 257.371 31.037 257.371 30.502H253.371C253.371 30.243 253.451 29.8237 253.818 29.4558L256.647 32.2842ZM257.371 30.502V26.316H253.371V30.502H257.371ZM257.371 26.316C257.371 25.8697 257.258 25.1676 256.681 24.5913C256.105 24.0149 255.403 23.902 254.957 23.902V27.902C254.786 27.902 254.291 27.8581 253.853 27.4197C253.415 26.9814 253.371 26.4863 253.371 26.316H257.371ZM254.957 23.902H250.495V27.902H254.957V23.902ZM263.825 37.356L265.748 37.9054L265.75 37.8957L265.753 37.8859L263.825 37.356ZM272.243 6.72L274.171 7.24991L274.177 7.22756L274.183 7.20507L272.243 6.72ZM279.511 6.72L277.538 7.0488L277.555 7.15187L277.583 7.2526L279.511 6.72ZM287.975 37.356L289.955 37.0732L289.936 36.9466L289.902 36.8234L287.975 37.356ZM281.351 37.678L283.291 37.1929L283.287 37.1755L283.282 37.1581L281.351 37.678ZM280.385 34.09L278.423 34.4822L278.436 34.5466L278.453 34.6099L280.385 34.09ZM271.415 34.09L273.34 34.6329L273.361 34.5583L273.376 34.4822L271.415 34.09ZM270.403 37.678L268.478 37.1351L268.47 37.1639L268.462 37.1929L270.403 37.678ZM273.301 27.006L275.198 27.6385L275.212 27.5966L275.224 27.5541L273.301 27.006ZM278.453 27.006L276.529 27.5541L276.541 27.5965L276.555 27.6384L278.453 27.006ZM276.015 18.45L274.074 18.9351L274.082 18.9667L274.091 18.9981L276.015 18.45ZM275.739 18.45L277.662 18.9981L277.671 18.9667L277.679 18.9351L275.739 18.45ZM264.285 35.954C264.706 35.954 265.158 36.1427 265.469 36.5365C265.791 36.9446 265.874 37.4637 265.748 37.9054L261.902 36.8066C261.418 38.4992 262.732 39.954 264.285 39.954V35.954ZM265.753 37.8859L274.171 7.24991L270.314 6.19009L261.896 36.8261L265.753 37.8859ZM274.183 7.20507C274.143 7.36376 274.036 7.54671 273.855 7.68148C273.681 7.81044 273.507 7.846 273.393 7.846V3.846C272.005 3.846 270.682 4.71506 270.302 6.23493L274.183 7.20507ZM273.393 7.846H278.361V3.846H273.393V7.846ZM278.361 7.846C278.259 7.846 278.104 7.81812 277.937 7.69735C277.751 7.5626 277.585 7.3318 277.538 7.0488L281.483 6.3912C281.188 4.62065 279.608 3.846 278.361 3.846V7.846ZM277.583 7.2526L286.047 37.8886L289.902 36.8234L281.438 6.1874L277.583 7.2526ZM285.995 37.6388C285.877 36.815 286.515 35.954 287.469 35.954V39.954C289.067 39.954 290.164 38.541 289.955 37.0732L285.995 37.6388ZM287.469 35.954H281.765V39.954H287.469V35.954ZM281.765 35.954C281.987 35.954 282.27 36.0066 282.554 36.1817C282.862 36.3713 283.17 36.7111 283.291 37.1929L279.41 38.1631C279.764 39.5758 281.065 39.954 281.765 39.954V35.954ZM283.282 37.1581L282.316 33.5701L278.453 34.6099L279.419 38.1979L283.282 37.1581ZM282.346 33.6978C282.224 33.0903 281.882 32.5542 281.368 32.1984C280.891 31.8682 280.379 31.768 279.971 31.768V35.768C279.747 35.768 279.418 35.7138 279.091 35.4871C278.727 35.2348 278.499 34.8596 278.423 34.4822L282.346 33.6978ZM279.971 31.768H271.829V35.768H279.971V31.768ZM271.829 31.768C271.421 31.768 270.908 31.8682 270.431 32.1984C269.918 32.5542 269.575 33.0904 269.453 33.6978L273.376 34.4822C273.3 34.8596 273.073 35.2348 272.708 35.4871C272.381 35.7138 272.053 35.768 271.829 35.768V31.768ZM269.49 33.5471L268.478 37.1351L272.328 38.2209L273.34 34.6329L269.49 33.5471ZM268.462 37.1929C268.58 36.7233 268.872 36.4021 269.144 36.2209C269.393 36.0549 269.696 35.954 270.035 35.954V39.954C270.825 39.954 272.016 39.4712 272.343 38.1631L268.462 37.1929ZM270.035 35.954H264.285V39.954H270.035V35.954ZM271.403 26.3735C271.177 27.0523 271.301 27.7563 271.642 28.2925C272.017 28.882 272.697 29.328 273.531 29.328V25.328C274.18 25.328 274.722 25.682 275.017 26.145C275.277 26.5547 275.378 27.0977 275.198 27.6385L271.403 26.3735ZM273.531 29.328H278.223V25.328H273.531V29.328ZM278.223 29.328C279.056 29.328 279.736 28.882 280.111 28.2925C280.452 27.7563 280.576 27.0523 280.35 26.3736L276.555 27.6384C276.375 27.0977 276.476 26.5547 276.737 26.145C277.031 25.682 277.573 25.328 278.223 25.328V29.328ZM280.376 26.4579L277.938 17.9019L274.091 18.9981L276.529 27.5541L280.376 26.4579ZM277.955 17.9649C277.789 17.3026 277.145 16.312 275.877 16.312C274.608 16.312 273.964 17.3026 273.798 17.9649L277.679 18.9351C277.559 19.4134 277.03 20.312 275.877 20.312C274.723 20.312 274.194 19.4134 274.074 18.9351L277.955 17.9649ZM273.815 17.9019L271.377 26.4579L275.224 27.5541L277.662 18.9981L273.815 17.9019ZM311.675 37.54H313.675L313.675 37.5281L311.675 37.54ZM305.235 37.54H307.235V37.5328L307.235 37.5255L305.235 37.54ZM305.189 31.192H303.189V31.1992L303.189 31.2065L305.189 31.192ZM304.959 30.042L306.832 29.3398L306.785 29.2156L306.723 29.0987L304.959 30.042ZM303.901 28.064L305.665 27.1207L305.641 27.0773L305.616 27.035L303.901 28.064ZM307.949 6.72L306.535 8.13421V8.13421L307.949 6.72ZM310.801 9.572L312.215 8.15779V8.15778L310.801 9.572ZM310.801 23.97L312.215 25.3842V25.3842L310.801 23.97ZM309.605 25.166L308.191 23.7518L307.16 24.7824L307.826 26.0791L309.605 25.166ZM311.399 28.662L313.188 27.7676L313.183 27.7582L313.178 27.7489L311.399 28.662ZM311.629 29.812H309.629L309.629 29.8239L311.629 29.812ZM304.591 21.118L305.485 22.9069L305.82 22.7398L306.071 22.4633L304.591 21.118ZM305.051 20.612L303.637 19.1978L303.603 19.2314L303.571 19.2667L305.051 20.612ZM305.051 12.93L303.571 14.2753L303.822 14.5518L304.157 14.7189L305.051 12.93ZM304.591 12.424L306.071 11.0787L306.039 11.0434L306.005 11.0098L304.591 12.424ZM309.675 37.54C309.675 37.2662 309.76 36.8474 310.102 36.4767C310.468 36.0797 310.931 35.954 311.261 35.954V39.954C311.868 39.954 312.537 39.7363 313.041 39.1898C313.521 38.6696 313.675 38.0438 313.675 37.54H309.675ZM311.261 35.954H305.695V39.954H311.261V35.954ZM305.695 35.954C306.221 35.954 306.571 36.193 306.743 36.3539C306.845 36.4487 306.952 36.5764 307.042 36.7453C307.127 36.9065 307.235 37.1794 307.235 37.54H303.235C303.235 38.3918 303.702 38.987 304.014 39.2781C304.359 39.6 304.939 39.954 305.695 39.954V35.954ZM307.235 37.5255L307.189 31.1775L303.189 31.2065L303.235 37.5545L307.235 37.5255ZM307.189 31.192C307.189 30.5242 307.03 29.8684 306.832 29.3398L303.086 30.7442C303.164 30.9516 303.189 31.1238 303.189 31.192H307.189ZM306.723 29.0987L305.665 27.1207L302.137 29.0073L303.195 30.9853L306.723 29.0987ZM305.616 27.035C305.18 26.3089 304.305 25.65 303.211 25.65V29.65C302.911 29.65 302.689 29.554 302.555 29.4713C302.421 29.3884 302.291 29.2675 302.186 29.093L305.616 27.035ZM303.211 25.65H296.633V29.65H303.211V25.65ZM296.633 25.65C296.11 25.65 295.518 25.8332 295.052 26.299C294.586 26.7648 294.403 27.3565 294.403 27.88H298.403C298.403 28.2655 298.266 28.7422 297.881 29.1275C297.495 29.5128 297.019 29.65 296.633 29.65V25.65ZM294.403 27.88V37.54H298.403V27.88H294.403ZM294.403 37.54C294.403 36.6654 295.114 35.954 295.989 35.954V39.954C297.324 39.954 298.403 38.8746 298.403 37.54H294.403ZM295.989 35.954H290.377V39.954H295.989V35.954ZM290.377 35.954C291.252 35.954 291.963 36.6654 291.963 37.54H287.963C287.963 38.8746 289.042 39.954 290.377 39.954V35.954ZM291.963 37.54V6.306H287.963V37.54H291.963ZM291.963 6.306C291.963 6.62249 291.849 7.04165 291.504 7.38671C291.159 7.73177 290.74 7.846 290.423 7.846V3.846C289.831 3.846 289.181 4.05223 288.675 4.55829C288.169 5.06435 287.963 5.71351 287.963 6.306H291.963ZM290.423 7.846H305.879V3.846H290.423V7.846ZM305.879 7.846C306.102 7.846 306.337 7.93618 306.535 8.13421L309.363 5.30579C308.457 4.39981 307.221 3.846 305.879 3.846V7.846ZM306.535 8.13421L309.387 10.9862L312.215 8.15778L309.363 5.30579L306.535 8.13421ZM309.387 10.9862C309.551 11.1503 309.629 11.3259 309.629 11.596H313.629C313.629 10.3021 313.155 9.09774 312.215 8.15779L309.387 10.9862ZM309.629 11.596V21.946H313.629V11.596H309.629ZM309.629 21.946C309.629 22.1873 309.539 22.4034 309.387 22.5558L312.215 25.3842C313.167 24.4326 313.629 23.1767 313.629 21.946H309.629ZM309.387 22.5558L308.191 23.7518L311.019 26.5802L312.215 25.3842L309.387 22.5558ZM307.826 26.0791L309.62 29.5751L313.178 27.7489L311.384 24.2529L307.826 26.0791ZM309.61 29.5564C309.611 29.5576 309.611 29.558 309.611 29.5578C309.611 29.5576 309.611 29.5575 309.611 29.5579C309.611 29.5581 309.613 29.5637 309.615 29.5775C309.621 29.6085 309.629 29.675 309.629 29.812H313.629C313.629 29.2455 313.567 28.5266 313.188 27.7676L309.61 29.5564ZM309.629 29.8239L309.675 37.5519L313.675 37.5281L313.629 29.8001L309.629 29.8239ZM294.403 20.98C294.403 21.5035 294.586 22.0952 295.052 22.561C295.518 23.0268 296.11 23.21 296.633 23.21V19.21C297.019 19.21 297.495 19.3472 297.881 19.7325C298.266 20.1178 298.403 20.5945 298.403 20.98H294.403ZM296.633 23.21H304.223V19.21H296.633V23.21ZM304.223 23.21C304.759 23.21 305.206 23.0464 305.485 22.9069L303.697 19.3291C303.763 19.2959 303.829 19.2707 303.898 19.2517C303.966 19.2332 304.077 19.21 304.223 19.21V23.21ZM306.071 22.4633L306.531 21.9573L303.571 19.2667L303.111 19.7727L306.071 22.4633ZM306.465 22.0262C307.017 21.4743 307.189 20.779 307.189 20.244H303.189C303.189 19.985 303.269 19.5657 303.637 19.1978L306.465 22.0262ZM307.189 20.244V13.252H303.189V20.244H307.189ZM307.189 13.252C307.189 12.9799 307.146 12.6509 307.012 12.3137C306.886 12.0009 306.59 11.4633 305.945 11.1411L304.157 14.7189C303.604 14.4427 303.377 13.9971 303.298 13.7993C303.209 13.5771 303.189 13.3861 303.189 13.252H307.189ZM306.531 11.5847L306.071 11.0787L303.111 13.7693L303.571 14.2753L306.531 11.5847ZM306.005 11.0098C305.453 10.4578 304.758 10.286 304.223 10.286V14.286C303.964 14.286 303.545 14.2062 303.177 13.8382L306.005 11.0098ZM304.223 10.286H296.633V14.286H304.223V10.286ZM296.633 10.286C296.11 10.286 295.518 10.4692 295.052 10.935C294.586 11.4008 294.403 11.9925 294.403 12.516H298.403C298.403 12.9015 298.266 13.3782 297.88 13.7635C297.495 14.1488 297.019 14.286 296.633 14.286V10.286ZM294.403 12.516V20.98H298.403V12.516H294.403ZM333.33 6.72L331.916 8.13421V8.13421L333.33 6.72ZM336.182 9.572L337.596 8.15779V8.15778L336.182 9.572ZM336.182 34.228L337.596 35.6422V35.6422L336.182 34.228ZM333.33 37.08L331.916 35.6658L333.33 37.08ZM329.972 31.376L331.386 32.7902L331.42 32.7566L331.452 32.7213L329.972 31.376ZM330.432 30.87L329.018 29.4558L328.984 29.4894L328.952 29.5247L330.432 30.87ZM330.432 12.93L328.952 14.2753L329.203 14.5518L329.537 14.7189L330.432 12.93ZM329.972 12.424L331.452 11.0787L331.42 11.0434L331.386 11.0098L329.972 12.424ZM315.804 35.954C316.12 35.954 316.54 36.0682 316.885 36.4133C317.23 36.7583 317.344 37.1775 317.344 37.494H313.344C313.344 38.0865 313.55 38.7357 314.056 39.2417C314.562 39.7478 315.211 39.954 315.804 39.954V35.954ZM317.344 37.494V6.306H313.344V37.494H317.344ZM317.344 6.306C317.344 6.62249 317.23 7.04165 316.885 7.38671C316.54 7.73177 316.12 7.846 315.804 7.846V3.846C315.211 3.846 314.562 4.05223 314.056 4.55829C313.55 5.06435 313.344 5.71351 313.344 6.306H317.344ZM315.804 7.846H331.26V3.846H315.804V7.846ZM331.26 7.846C331.482 7.846 331.718 7.93618 331.916 8.13421L334.744 5.30579C333.838 4.39981 332.601 3.846 331.26 3.846V7.846ZM331.916 8.13421L334.768 10.9862L337.596 8.15778L334.744 5.30579L331.916 8.13421ZM334.768 10.9862C334.932 11.1503 335.01 11.3259 335.01 11.596H339.01C339.01 10.3021 338.536 9.09774 337.596 8.15779L334.768 10.9862ZM335.01 11.596V32.204H339.01V11.596H335.01ZM335.01 32.204C335.01 32.4453 334.92 32.6614 334.768 32.8138L337.596 35.6422C338.548 34.6906 339.01 33.4347 339.01 32.204H335.01ZM334.768 32.8138L331.916 35.6658L334.744 38.4942L337.596 35.6422L334.768 32.8138ZM331.916 35.6658C331.718 35.8638 331.482 35.954 331.26 35.954V39.954C332.601 39.954 333.838 39.4002 334.744 38.4942L331.916 35.6658ZM331.26 35.954H315.804V39.954H331.26V35.954ZM319.784 31.284C319.784 31.8075 319.967 32.3992 320.433 32.865C320.899 33.3308 321.49 33.514 322.014 33.514V29.514C322.399 29.514 322.876 29.6512 323.261 30.0365C323.647 30.4218 323.784 30.8985 323.784 31.284H319.784ZM322.014 33.514H329.604V29.514H322.014V33.514ZM329.604 33.514C330.139 33.514 330.834 33.3422 331.386 32.7902L328.558 29.9618C328.926 29.5938 329.345 29.514 329.604 29.514V33.514ZM331.452 32.7213L331.912 32.2153L328.952 29.5247L328.492 30.0307L331.452 32.7213ZM331.846 32.2842C332.398 31.7323 332.57 31.037 332.57 30.502H328.57C328.57 30.243 328.65 29.8237 329.018 29.4558L331.846 32.2842ZM332.57 30.502V13.252H328.57V30.502H332.57ZM332.57 13.252C332.57 12.9799 332.527 12.6509 332.392 12.3137C332.267 12.0009 331.971 11.4633 331.326 11.1411L329.537 14.7189C328.985 14.4427 328.758 13.9971 328.678 13.7993C328.59 13.5771 328.57 13.3861 328.57 13.252H332.57ZM331.912 11.5847L331.452 11.0787L328.492 13.7693L328.952 14.2753L331.912 11.5847ZM331.386 11.0098C330.834 10.4578 330.139 10.286 329.604 10.286V14.286C329.345 14.286 328.926 14.2062 328.558 13.8382L331.386 11.0098ZM329.604 10.286H322.014V14.286H329.604V10.286ZM322.014 10.286C321.49 10.286 320.899 10.4692 320.433 10.935C319.967 11.4008 319.784 11.9925 319.784 12.516H323.784C323.784 12.9015 323.647 13.3782 323.261 13.7635C322.876 14.1488 322.399 14.286 322.014 14.286V10.286ZM319.784 12.516V31.284H323.784V12.516H319.784ZM360.092 7.846C359.761 7.846 359.299 7.72027 358.933 7.32331C358.591 6.95262 358.506 6.5338 358.506 6.26H362.506C362.506 5.7562 362.352 5.13038 361.872 4.61019C361.368 4.06373 360.698 3.846 360.092 3.846V7.846ZM358.506 6.26V11.872H362.506V6.26H358.506ZM358.506 11.872C358.506 11.5982 358.591 11.1794 358.933 10.8087C359.299 10.4117 359.761 10.286 360.092 10.286V14.286C360.698 14.286 361.368 14.0683 361.872 13.5218C362.352 13.0016 362.506 12.3758 362.506 11.872H358.506ZM360.092 10.286H347.35V14.286H360.092V10.286ZM347.35 10.286C346.826 10.286 346.235 10.4692 345.769 10.935C345.303 11.4008 345.12 11.9925 345.12 12.516H349.12C349.12 12.9015 348.983 13.3782 348.597 13.7635C348.212 14.1488 347.735 14.286 347.35 14.286V10.286ZM345.12 12.516V17.898H349.12V12.516H345.12ZM345.12 17.898C345.12 18.4215 345.303 19.0132 345.769 19.479C346.235 19.9448 346.826 20.128 347.35 20.128V16.128C347.735 16.128 348.212 16.2652 348.597 16.6505C348.983 17.0358 349.12 17.5125 349.12 17.898H345.12ZM347.35 20.128H358.666V16.128H347.35V20.128ZM358.666 20.128C357.96 20.128 357.548 19.724 357.407 19.5502C357.271 19.3827 357.08 19.0665 357.08 18.588H361.08C361.08 17.9255 360.797 17.3793 360.511 17.0278C360.221 16.67 359.602 16.128 358.666 16.128V20.128ZM357.08 18.588V24.2H361.08V18.588H357.08ZM357.08 24.2C357.08 23.9097 357.179 23.4051 357.625 22.9959C358.045 22.6112 358.494 22.568 358.666 22.568V26.568C359.114 26.568 359.77 26.4558 360.328 25.9446C360.912 25.4089 361.08 24.7203 361.08 24.2H357.08ZM358.666 22.568H347.35V26.568H358.666V22.568ZM347.35 22.568C346.826 22.568 346.235 22.7512 345.769 23.217C345.303 23.6828 345.12 24.2745 345.12 24.798H349.12C349.12 25.1835 348.983 25.6602 348.597 26.0455C348.212 26.4308 347.735 26.568 347.35 26.568V22.568ZM345.12 24.798V31.33H349.12V24.798H345.12ZM345.12 31.33C345.12 31.8535 345.303 32.4452 345.769 32.911C346.235 33.3768 346.826 33.56 347.35 33.56V29.56C347.735 29.56 348.212 29.6972 348.597 30.0825C348.983 30.4678 349.12 30.9445 349.12 31.33H345.12ZM347.35 33.56H360.092V29.56H347.35V33.56ZM360.092 33.56C359.92 33.56 359.471 33.5168 359.051 33.1321C358.605 32.7229 358.506 32.2183 358.506 31.928H362.506C362.506 31.4077 362.338 30.7191 361.754 30.1834C361.196 29.6722 360.54 29.56 360.092 29.56V33.56ZM358.506 31.928V37.54H362.506V31.928H358.506ZM358.506 37.54C358.506 37.0189 358.732 36.6567 358.919 36.4551C359.126 36.2327 359.522 35.954 360.092 35.954V39.954C360.891 39.954 361.495 39.5603 361.851 39.1769C362.187 38.8143 362.506 38.2451 362.506 37.54H358.506ZM360.092 35.954H341.14V39.954H360.092V35.954ZM341.14 35.954C341.309 35.954 341.715 35.9949 342.108 36.332C342.548 36.7095 342.68 37.2049 342.68 37.54H338.68C338.68 38.1511 338.903 38.8535 339.505 39.369C340.059 39.8442 340.695 39.954 341.14 39.954V35.954ZM342.68 37.54V6.306H338.68V37.54H342.68ZM342.68 6.306C342.68 6.62249 342.566 7.04165 342.221 7.38671C341.875 7.73177 341.456 7.846 341.14 7.846V3.846C340.547 3.846 339.898 4.05223 339.392 4.55829C338.886 5.06435 338.68 5.71351 338.68 6.306H342.68ZM341.14 7.846H360.092V3.846H341.14V7.846ZM380.826 37.264L382.615 36.3696L382.582 36.3049L382.546 36.2427L380.826 37.264ZM370.936 20.612L372.656 19.5907L372.629 19.5459L372.6 19.5026L370.936 20.612ZM370.108 6.536L371.827 5.51403L371.823 5.50701L370.108 6.536ZM379.952 23.096L378.233 24.118L378.259 24.1624L378.288 24.2054L379.952 23.096ZM382.228 6.26C382.228 6.69798 382.045 7.12652 381.715 7.43233C381.389 7.7358 381.001 7.846 380.688 7.846V3.846C379.45 3.846 378.228 4.78844 378.228 6.26H382.228ZM380.688 7.846H386.254V3.846H380.688V7.846ZM386.254 7.846C385.923 7.846 385.461 7.72027 385.095 7.32331C384.753 6.95262 384.668 6.5338 384.668 6.26H388.668C388.668 5.75619 388.514 5.13037 388.034 4.61019C387.53 4.06373 386.861 3.846 386.254 3.846V7.846ZM384.668 6.26V37.494H388.668V6.26H384.668ZM384.668 37.494C384.668 37.1775 384.782 36.7583 385.127 36.4133C385.472 36.0682 385.891 35.954 386.208 35.954V39.954C386.8 39.954 387.45 39.7478 387.956 39.2417C388.462 38.7357 388.668 38.0865 388.668 37.494H384.668ZM386.208 35.954H382.068V39.954H386.208V35.954ZM382.068 35.954C382.108 35.954 382.18 35.9616 382.275 36.0117C382.379 36.0665 382.52 36.1798 382.615 36.3696L379.037 38.1584C379.697 39.4788 381.033 39.954 382.068 39.954V35.954ZM382.546 36.2427L372.656 19.5907L369.216 21.6333L379.106 38.2853L382.546 36.2427ZM372.6 19.5026C371.904 18.458 370.745 18.4447 370.108 18.6571C369.563 18.8389 368.614 19.4628 368.614 20.704H372.614C372.614 21.8072 371.78 22.3161 371.373 22.4519C370.874 22.6183 369.876 22.628 369.272 21.7214L372.6 19.5026ZM368.614 20.704V37.54H372.614V20.704H368.614ZM368.614 37.54C368.614 36.6654 369.325 35.954 370.2 35.954V39.954C371.535 39.954 372.614 38.8746 372.614 37.54H368.614ZM370.2 35.954H364.588V39.954H370.2V35.954ZM364.588 35.954C365.463 35.954 366.174 36.6654 366.174 37.54H362.174C362.174 38.8746 363.253 39.954 364.588 39.954V35.954ZM366.174 37.54V6.306H362.174V37.54H366.174ZM366.174 6.306C366.174 6.62249 366.06 7.04165 365.715 7.38671C365.37 7.73177 364.95 7.846 364.634 7.846V3.846C364.041 3.846 363.392 4.05223 362.886 4.55829C362.38 5.06435 362.174 5.71351 362.174 6.306H366.174ZM364.634 7.846H368.866V3.846H364.634V7.846ZM368.866 7.846C368.772 7.846 368.694 7.82472 368.624 7.78833C368.549 7.74859 368.46 7.67691 368.393 7.56499L371.823 5.50701C371.138 4.36611 369.932 3.846 368.866 3.846V7.846ZM368.389 7.55796L378.233 24.118L381.671 22.074L371.827 5.51404L368.389 7.55796ZM378.288 24.2054C378.55 24.5985 378.958 24.9318 379.484 25.0823C379.992 25.2273 380.479 25.1657 380.867 25.0105C381.591 24.7208 382.228 23.9863 382.228 23.004H378.228C378.228 22.1597 378.773 21.5402 379.382 21.2965C379.712 21.1643 380.136 21.1085 380.583 21.2362C381.05 21.3694 381.4 21.6625 381.616 21.9866L378.288 24.2054ZM382.228 23.004V6.26H378.228V23.004H382.228Z" fill="white"/>
</g>
<defs>
<filter id="filter0_ddddd_262_58" x="0.316559" y="0.846008" width="412.351" height="127.108" filterUnits="userSpaceOnUse" color-interpolation-filters="sRGB">
<feFlood flood-opacity="0" result="BackgroundImageFix"/>
<feColorMatrix in="SourceAlpha" type="matrix" values="0 0 0 0 0 0 0 0 0 0 0 0 0 0 0 0 0 0 127 0" result="hardAlpha"/>
<feOffset/>
<feColorMatrix type="matrix" values="0 0 0 0 0 0 0 0 0 0 0 0 0 0 0 0 0 0 0.1 0"/>
<feBlend mode="normal" in2="BackgroundImageFix" result="effect1_dropShadow_262_58"/>
<feColorMatrix in="SourceAlpha" type="matrix" values="0 0 0 0 0 0 0 0 0 0 0 0 0 0 0 0 0 0 127 0" result="hardAlpha"/>
<feOffset dy="4"/>
<feGaussianBlur stdDeviation="4.5"/>
<feColorMatrix type="matrix" values="0 0 0 0 0 0 0 0 0 0 0 0 0 0 0 0 0 0 0.1 0"/>
<feBlend mode="normal" in2="effect1_dropShadow_262_58" result="effect2_dropShadow_262_58"/>
<feColorMatrix in="SourceAlpha" type="matrix" values="0 0 0 0 0 0 0 0 0 0 0 0 0 0 0 0 0 0 127 0" result="hardAlpha"/>
<feOffset dy="16"/>
<feGaussianBlur stdDeviation="8"/>
<feColorMatrix type="matrix" values="0 0 0 0 0 0 0 0 0 0 0 0 0 0 0 0 0 0 0.09 0"/>
<feBlend mode="normal" in2="effect2_dropShadow_262_58" result="effect3_dropShadow_262_58"/>
<feColorMatrix in="SourceAlpha" type="matrix" values="0 0 0 0 0 0 0 0 0 0 0 0 0 0 0 0 0 0 127 0" result="hardAlpha"/>
<feOffset dy="36"/>
<feGaussianBlur stdDeviation="11"/>
<feColorMatrix type="matrix" values="0 0 0 0 0 0 0 0 0 0 0 0 0 0 0 0 0 0 0.05 0"/>
<feBlend mode="normal" in2="effect3_dropShadow_262_58" result="effect4_dropShadow_262_58"/>
<feColorMatrix in="SourceAlpha" type="matrix" values="0 0 0 0 0 0 0 0 0 0 0 0 0 0 0 0 0 0 127 0" result="hardAlpha"/>
<feOffset dy="64"/>
<feGaussianBlur stdDeviation="13"/>
<feColorMatrix type="matrix" values="0 0 0 0 0 0 0 0 0 0 0 0 0 0 0 0 0 0 0.01 0"/>
<feBlend mode="normal" in2="effect4_dropShadow_262_58" result="effect5_dropShadow_262_58"/>
<feBlend mode="normal" in="SourceGraphic" in2="effect5_dropShadow_262_58" result="shape"/>
</filter>
</defs>
</svg>
